<svg viewBox="0 0 1024 1024" version="1.1" xmlns="http://www.w3.org/2000/svg" width="22" height="22">
    <path
        d="M248.2 923.8c-7.6 4.6-19.2 2.4-22.7-5.8-19.4-46.3-78.1-182.9-10.8-266.7 79-98.3 157-102.7 249.9-95.2 92.9 7.6 218.9-33.3 251.7-155.8 27-100.7 11.6-230.7 6.6-273.5-1-8.4 1.3-14.6 9.4-17l24.3-6c5-1.5 10.2 1.8 10.8 7 5.5 41.3 24.5 202.4 1.6 285.2-25.3 91.4-46.4 131-139.5 179.9-80.1 42-157.1 17.5-225.3 24.6-55.4 5.7-80.9 8.5-132.2 55.8-37.8 34.9-43.7 72.5-39.9 135.1 2.6 41.8 22.1 84.9 32.7 105.5 3.7 7.2 1.2 16-5.7 20.1l-10.9 6.8z"
        fill="#5c5c5c"
    ></path>
</svg>
