<svg
  viewBox="0 0 1024 1024"
  version="1.1"
  xmlns="http://www.w3.org/2000/svg"
  p-id="8309"
  width="20"
  height="20"
>
  <path
    fill="#5c5c5c"
    d="M543.573333 699.733333a65.28 65.28 0 0 0 128 0 65.28 65.28 0 1 0-128 0z m-303.786666-223.146666a49.92 49.92 0 0 0 99.84 0H341.333333a49.92 49.92 0 0 0-99.84 0z m646.4-66.133334a465.92 465.92 0 0 0-57.173334-78.933333c-10.666667 11.52-28.586667 31.573333-50.773333 55.04a192.853333 192.853333 0 0 1 17.493333 22.613333c5.12 14.933333 22.186667 42.666667 8.96 66.56s-34.56 31.146667-65.706666 47.36c-62.72 32.853333-48.64 98.133333-16.213334 187.733334 10.24 28.586667 26.453333 76.8-11.52 91.306666a213.333333 213.333333 0 0 1-81.066666 12.8 469.333333 469.333333 0 0 1-118.186667-18.346666c-145.493333-40.106667-245.76-118.186667-285.866667-228.693334s-32.853333-250.88 48.213334-317.013333 226.56-74.666667 341.333333 0c15.36 9.386667 30.293333 19.2 42.666667 29.013333l56.746666-50.346666c-15.786667-11.52-32.426667-23.04-50.346666-34.133334-149.333333-93.013333-334.933333-83.2-439.04 0s-124.16 256-73.386667 396.8 176.213333 250.88 366.08 288.853334a805.546667 805.546667 0 0 0 133.973333 15.786666 328.533333 328.533333 0 0 0 122.453334-15.786666 80.213333 80.213333 0 0 0 36.266666-108.373334c-42.666667-113.066667-80.213333-174.933333 0-216.32 40.106667-20.906667 55.893333-27.733333 72.96-58.026666a109.653333 109.653333 0 0 0 0-85.333334z m-408.746667 75.52A388.693333 388.693333 0 0 0 384 640a307.2 307.2 0 0 0 162.133333-81.066667c28.16-37.973333 175.36-184.746667 175.36-184.746666l142.506667-147.2a46.933333 46.933333 0 0 0-10.666667-26.026667 42.666667 42.666667 0 0 0-23.04-8.533333l-166.4 141.226666s-146.346667 121.173333-186.453333 152.32z m48.213333-213.333333a46.08 46.08 0 1 0-45.653333 45.653333 45.653333 45.653333 0 0 0 45.653333-45.653333z m-133.973333 64A46.08 46.08 0 1 0 346.026667 384a45.653333 45.653333 0 0 0 45.653333-47.36z"
    p-id="8310"
  ></path>
</svg>