<!-- <?xml version="1.0" encoding="utf-8"?> -->
<svg version="1.1" xmlns="http://www.w3.org/2000/svg" xmlns:xlink="http://www.w3.org/1999/xlink" width="22" height="5398" viewBox="0 0 22 5398">
<svg id="icon-doubleWave" width="22" height="22" viewBox="0 0 22 22" x="0" y="0">
<path fill="#5c5c5c" d="M19 14.5v1c-0.449 0-0.66 0.168-1.112 0.793l-0.015 0.021c-0.616 0.851-1.033 1.186-1.872 1.186-1.070 0-1.607-0.359-2.237-1.2-0.031-0.042-0.031-0.042-0.062-0.083-0.424-0.567-0.635-0.717-1.172-0.717-0.583 0-0.852 0.182-1.405 0.826l-0.018 0.021c-0.714 0.832-1.185 1.153-2.105 1.153-0.966 0-1.446-0.374-1.995-1.23-0.027-0.042-0.027-0.042-0.053-0.083-0.353-0.551-0.518-0.687-0.927-0.687-0.45 0-0.666 0.17-1.127 0.796l-0.016 0.021c-0.625 0.849-1.044 1.182-1.882 1.182v-10c0.421 0 0.625-0.162 1.076-0.775l0.016-0.021c0.635-0.862 1.068-1.204 1.932-1.204 0.841 0 1.25 0.338 1.769 1.148 0.027 0.042 0.027 0.042 0.053 0.082 0.385 0.599 0.604 0.77 1.154 0.77s0.805-0.174 1.346-0.804l0.018-0.021c0.726-0.845 1.213-1.174 2.164-1.174 0.922 0 1.38 0.324 1.973 1.118 0.031 0.042 0.031 0.042 0.062 0.082 0.46 0.614 0.738 0.8 1.437 0.8 0.42 0 0.62-0.161 1.062-0.772l0.015-0.021c0.625-0.864 1.056-1.207 1.923-1.207v9zM18 14.747v-7.606c-0.036 0.047-0.073 0.098-0.112 0.152l-0.015 0.021c-0.616 0.851-1.033 1.186-1.872 1.186-1.070 0-1.607-0.359-2.237-1.2-0.031-0.042-0.031-0.042-0.062-0.083-0.424-0.567-0.635-0.717-1.172-0.717-0.583 0-0.852 0.182-1.405 0.826l-0.018 0.021c-0.714 0.832-1.185 1.153-2.105 1.153-0.966 0-1.446-0.374-1.995-1.23-0.027-0.042-0.027-0.042-0.053-0.083-0.353-0.551-0.518-0.687-0.927-0.687-0.45 0-0.666 0.17-1.127 0.796l-0.016 0.021c-0.32 0.435-0.586 0.734-0.882 0.923v7.587c0.025-0.033 0.050-0.067 0.076-0.102l0.016-0.021c0.635-0.862 1.068-1.204 1.932-1.204 0.841 0 1.25 0.338 1.769 1.148 0.027 0.042 0.027 0.042 0.053 0.082 0.385 0.599 0.604 0.77 1.154 0.77s0.805-0.174 1.346-0.804l0.018-0.021c0.726-0.845 1.213-1.174 2.164-1.174 0.922 0 1.38 0.324 1.973 1.118 0.031 0.042 0.031 0.042 0.062 0.082 0.46 0.614 0.738 0.8 1.437 0.8 0.42 0 0.62-0.161 1.062-0.772l0.015-0.021c0.331-0.457 0.607-0.768 0.923-0.96z"></path>
</svg>
<svg id="icon-actionButtonSound" width="22" height="22" viewBox="0 0 22 22" x="0" y="32">
<path fill="none" stroke="#5c5c5c" stroke-linejoin="miter" stroke-linecap="butt" stroke-miterlimit="4" stroke-width="1" d="M3.5 8.5v5h2.638l4.361 2.617v-10.234l-4.362 2.617h-2.638z"></path>
<path fill="#5c5c5c" d="M13 8l0.713-0.713c0.806 1.021 1.287 2.311 1.287 3.713s-0.481 2.692-1.287 3.713l-0.713-0.713c0.628-0.836 1-1.875 1-3s-0.372-2.165-1-3z"></path>
<path fill="#5c5c5c" d="M15.135 5.865l0.71-0.71c1.344 1.572 2.156 3.614 2.156 5.844s-0.812 4.272-2.156 5.844l-0.71-0.71c1.164-1.389 1.865-3.18 1.865-5.135s-0.701-3.745-1.865-5.135z"></path>
</svg>
<svg id="icon-actionButtonBackPrevious" width="22" height="22" viewBox="0 0 22 22" x="0" y="64">
<path fill="none" stroke="#5c5c5c" stroke-linejoin="miter" stroke-linecap="butt" stroke-miterlimit="4" stroke-width="1" d="M3.5 3.5h15v15h-15v-15z"></path>
<path fill="none" stroke="#5c5c5c" stroke-linejoin="miter" stroke-linecap="butt" stroke-miterlimit="4" stroke-width="1" d="M8.008 11l5.492-3.138v6.277l-5.492-3.138z"></path>
</svg>
<svg id="icon-actionButtonBeginning" width="22" height="22" viewBox="0 0 22 22" x="0" y="96">
<path fill="none" stroke="#5c5c5c" stroke-linejoin="miter" stroke-linecap="butt" stroke-miterlimit="4" stroke-width="1" d="M3.5 3.5h15v15h-15v-15z"></path>
<path fill="none" stroke="#5c5c5c" stroke-linejoin="miter" stroke-linecap="butt" stroke-miterlimit="4" stroke-width="1" d="M9.008 11l5.492 3.138v-6.277l-5.492 3.138z"></path>
<path fill="#5c5c5c" d="M7 7h1v8h-1v-8z"></path>
</svg>
<svg id="icon-actionButtonDocument" width="22" height="22" viewBox="0 0 22 22" x="0" y="128">
<path fill="none" stroke="#5c5c5c" stroke-linejoin="miter" stroke-linecap="butt" stroke-miterlimit="4" stroke-width="1" d="M5.5 4.5v13h11v-9.796l-3.139-3.204h-7.861z"></path>
<path fill="#5c5c5c" d="M12 4h1v5h-1v-5z"></path>
<path fill="#5c5c5c" d="M17 8v1h-4v-1h4z"></path>
</svg>
<svg id="icon-actionButtonEnd" width="22" height="22" viewBox="0 0 22 22" x="0" y="160">
<path fill="none" stroke="#5c5c5c" stroke-linejoin="miter" stroke-linecap="butt" stroke-miterlimit="4" stroke-width="1" d="M3.5 3.5h15v15h-15v-15z"></path>
<path fill="none" stroke="#5c5c5c" stroke-linejoin="miter" stroke-linecap="butt" stroke-miterlimit="4" stroke-width="1" d="M12.992 11l-5.492 3.138v-6.277l5.492 3.138z"></path>
<path fill="#5c5c5c" d="M15 7h-1v8h1v-8z"></path>
</svg>
<svg id="icon-actionButtonForwardNext" width="22" height="22" viewBox="0 0 22 22" x="0" y="192">
<path fill="none" stroke="#5c5c5c" stroke-linejoin="miter" stroke-linecap="butt" stroke-miterlimit="4" stroke-width="1" d="M3.5 3.5h15v15h-15v-15z"></path>
<path fill="none" stroke="#5c5c5c" stroke-linejoin="miter" stroke-linecap="butt" stroke-miterlimit="4" stroke-width="1" d="M13.992 11l-5.492-3.138v6.277l5.492-3.138z"></path>
</svg>
<svg id="icon-actionButtonHelp" width="22" height="22" viewBox="0 0 22 22" x="0" y="224">
<path fill="none" stroke="#5c5c5c" stroke-linejoin="miter" stroke-linecap="butt" stroke-miterlimit="4" stroke-width="1" d="M3.5 3.5h15v15h-15v-15z"></path>
<path fill="#5c5c5c" d="M11.116 7c0.717 0 1.291 0.187 1.733 0.582 0.43 0.385 0.651 0.912 0.651 1.571 0 0.538-0.143 0.989-0.408 1.341-0.099 0.121-0.408 0.407-0.938 0.857-0.199 0.176-0.353 0.363-0.453 0.56-0.121 0.22-0.177 0.462-0.177 0.736v0.187h-1.181v-0.187c0-0.407 0.066-0.758 0.21-1.044 0.155-0.308 0.574-0.758 1.258-1.363l0.188-0.209c0.199-0.253 0.298-0.516 0.298-0.802 0-0.385-0.11-0.681-0.32-0.901-0.221-0.22-0.53-0.33-0.927-0.33-0.497 0-0.861 0.154-1.082 0.462-0.199 0.264-0.298 0.648-0.298 1.132h-1.17c0-0.802 0.232-1.429 0.706-1.89 0.464-0.473 1.104-0.703 1.909-0.703zM10.928 13.429c0.232 0 0.43 0.066 0.585 0.22 0.155 0.143 0.232 0.33 0.232 0.56s-0.077 0.418-0.232 0.571c-0.166 0.143-0.364 0.22-0.585 0.22-0.232 0-0.419-0.077-0.563-0.231-0.166-0.154-0.243-0.341-0.243-0.56 0-0.231 0.077-0.418 0.243-0.56 0.143-0.154 0.331-0.22 0.563-0.22z"></path>
</svg>
<svg id="icon-actionButtonHome" width="22" height="22" viewBox="0 0 22 22" x="0" y="256">
<path fill="none" stroke="#5c5c5c" stroke-linejoin="miter" stroke-linecap="butt" stroke-miterlimit="4" stroke-width="1" d="M3.5 3.5h15v15h-15v-15z"></path>
<path fill="none" stroke="#5c5c5c" stroke-linejoin="miter" stroke-linecap="butt" stroke-miterlimit="4" stroke-width="1" d="M15.793 11.5l-4.793-4.793-4.793 4.793h1.293v4h2v-3h3v3h2v-4h1.293z"></path>
</svg>
<svg id="icon-actionButtonInformation" width="22" height="22" viewBox="0 0 22 22" x="0" y="288">
<path fill="none" stroke="#5c5c5c" stroke-linejoin="miter" stroke-linecap="butt" stroke-miterlimit="4" stroke-width="1" d="M3.5 3.5h15v15h-15v-15z"></path>
<path fill="#5c5c5c" d="M12 8c0-0.552-0.448-1-1-1s-1 0.448-1 1c0 0.552 0.447 1 1 1s1-0.448 1-1v0z"></path>
<path fill="#5c5c5c" d="M10.124 14.519h-0.624v0.981h3v-0.981h-0.623v-5.019h-2.377v0.909h0.624z"></path>
</svg>
<svg id="icon-actionButtonMovie" width="22" height="22" viewBox="0 0 22 22" x="0" y="320">
<path fill="none" stroke="#5c5c5c" stroke-linejoin="miter" stroke-linecap="butt" stroke-miterlimit="4" stroke-width="1" d="M19.5 6.946l-3 2.045v4.017l3 2.045v-8.108z"></path>
<path fill="#fff" stroke="#5c5c5c" stroke-linejoin="miter" stroke-linecap="butt" stroke-miterlimit="4" stroke-width="1" d="M2.5 5.5h12v11h-12v-11z"></path>
</svg>
<svg id="icon-actionButtonReturn" width="22" height="22" viewBox="0 0 22 22" x="0" y="352">
<path fill="none" stroke="#5c5c5c" stroke-linejoin="miter" stroke-linecap="butt" stroke-miterlimit="4" stroke-width="1" d="M3.5 3.5h15v15h-15v-15z"></path>
<path fill="none" stroke="#5c5c5c" stroke-linejoin="miter" stroke-linecap="butt" stroke-miterlimit="4" stroke-width="1" d="M12.5 10h-1.5l2.5-3 2.5 3h-1.5v2c0 2.209-1.791 4-4 4s-4-1.791-4-4v-2h2v2c0 1.105 0.895 2 2 2s2-0.895 2-2v-2z"></path>
</svg>
<svg id="icon-borderCallout1" width="22" height="22" viewBox="0 0 22 22" x="0" y="384">
<path fill="none" stroke="#5c5c5c" stroke-linejoin="miter" stroke-linecap="butt" stroke-miterlimit="4" stroke-width="1" d="M10 8c0 0-2.667 4-8 12"></path>
<path fill="#fff" stroke="#5c5c5c" stroke-linejoin="miter" stroke-linecap="butt" stroke-miterlimit="4" stroke-width="1" d="M8.5 4.5h10v10h-10v-10z"></path>
</svg>
<svg id="icon-accentCallout1" width="22" height="22" viewBox="0 0 22 22" x="0" y="416">
<path fill="none" stroke="#5c5c5c" stroke-linejoin="miter" stroke-linecap="butt" stroke-miterlimit="4" stroke-width="1" d="M10 8c0 0-2.667 4-8 12"></path>
<path fill="#fff" stroke="#5c5c5c" stroke-linejoin="miter" stroke-linecap="butt" stroke-miterlimit="4" stroke-width="1" d="M10.5 4.5h8v10h-8v-10z"></path>
<path fill="#fff" d="M11 4h1v1h-1v-1z"></path>
<path fill="#fff" d="M11 14h1v1h-1v-1z"></path>
<path fill="#fff" d="M13 4h1v1h-1v-1z"></path>
<path fill="#fff" d="M13 14h1v1h-1v-1z"></path>
<path fill="#fff" d="M15 4h1v1h-1v-1z"></path>
<path fill="#fff" d="M15 14h1v1h-1v-1z"></path>
<path fill="#fff" d="M17 4h1v1h-1v-1z"></path>
<path fill="#fff" d="M18 5h1v1h-1v-1z"></path>
<path fill="#fff" d="M10 5h1v1h-1v-1z"></path>
<path fill="#fff" d="M18 7h1v1h-1v-1z"></path>
<path fill="#fff" d="M10 7h1v1h-1v-1z"></path>
<path fill="#fff" d="M18 9h1v1h-1v-1z"></path>
<path fill="#fff" d="M10 9h1v1h-1v-1z"></path>
<path fill="#fff" d="M18 11h1v1h-1v-1z"></path>
<path fill="#fff" d="M10 11h1v1h-1v-1z"></path>
<path fill="#fff" d="M18 13h1v1h-1v-1z"></path>
<path fill="#fff" d="M10 13h1v1h-1v-1z"></path>
<path fill="#fff" d="M17 14h1v1h-1v-1z"></path>
<path fill="#f8f8f8" stroke="#5c5c5c" stroke-linejoin="miter" stroke-linecap="butt" stroke-miterlimit="4" stroke-width="1" d="M8.5 4.5h1v10h-1v-10z"></path>
<path fill="#fff" d="M9 4h1v11h-1v-11z"></path>
</svg>
<svg id="icon-accentBorderCallout1" width="22" height="22" viewBox="0 0 22 22" x="0" y="448">
<path fill="none" stroke="#5c5c5c" stroke-linejoin="miter" stroke-linecap="butt" stroke-miterlimit="4" stroke-width="1" d="M10 8c0 0-2.667 4-8 12"></path>
<path fill="#fff" stroke="#5c5c5c" stroke-linejoin="miter" stroke-linecap="butt" stroke-miterlimit="4" stroke-width="1" d="M10.5 4.5h8v10h-8v-10z"></path>
<path fill="#f8f8f8" stroke="#5c5c5c" stroke-linejoin="miter" stroke-linecap="butt" stroke-miterlimit="4" stroke-width="1" d="M8.5 4.5h1v10h-1v-10z"></path>
<path fill="#fff" d="M9 4h1v11h-1v-11z"></path>
</svg>
<svg id="icon-callout1" width="22" height="22" viewBox="0 0 22 22" x="0" y="480">
<path fill="none" stroke="#5c5c5c" stroke-linejoin="miter" stroke-linecap="butt" stroke-miterlimit="4" stroke-width="1" d="M10 8c0 0-2.667 4-8 12"></path>
<path fill="#fff" stroke="#5c5c5c" stroke-linejoin="miter" stroke-linecap="butt" stroke-miterlimit="4" stroke-width="1" d="M8.5 4.5h10v10h-10v-10z"></path>
<path fill="#fff" d="M9 4h1v1h-1v-1z"></path>
<path fill="#fff" d="M9 14h1v1h-1v-1z"></path>
<path fill="#fff" d="M8 5h1v1h-1v-1z"></path>
<path fill="#fff" d="M18 5h1v1h-1v-1z"></path>
<path fill="#fff" d="M8 9h1v1h-1v-1z"></path>
<path fill="#fff" d="M18 9h1v1h-1v-1z"></path>
<path fill="#fff" d="M8 7h1v1h-1v-1z"></path>
<path fill="#fff" d="M18 7h1v1h-1v-1z"></path>
<path fill="#fff" d="M8 11h1v1h-1v-1z"></path>
<path fill="#fff" d="M18 11h1v1h-1v-1z"></path>
<path fill="#fff" d="M8 13h1v1h-1v-1z"></path>
<path fill="#fff" d="M18 13h1v1h-1v-1z"></path>
<path fill="#fff" d="M13 4h1v1h-1v-1z"></path>
<path fill="#fff" d="M13 14h1v1h-1v-1z"></path>
<path fill="#fff" d="M11 4h1v1h-1v-1z"></path>
<path fill="#fff" d="M11 14h1v1h-1v-1z"></path>
<path fill="#fff" d="M15 4h1v1h-1v-1z"></path>
<path fill="#fff" d="M15 14h1v1h-1v-1z"></path>
<path fill="#fff" d="M17 4h1v1h-1v-1z"></path>
<path fill="#fff" d="M17 14h1v1h-1v-1z"></path>
</svg>
<svg id="icon-borderCallout2" width="22" height="22" viewBox="0 0 22 22" x="0" y="512">
<path fill="none" stroke="#5c5c5c" stroke-linejoin="miter" stroke-linecap="butt" stroke-miterlimit="4" stroke-width="1" d="M9 9.5c-2 0-3 0-3 0s-1.333 3.5-4 10.5"></path>
<path fill="#fff" stroke="#5c5c5c" stroke-linejoin="miter" stroke-linecap="butt" stroke-miterlimit="4" stroke-width="1" d="M8.5 4.5h10v10h-10v-10z"></path>
</svg>
<svg id="icon-accentCallout2" width="22" height="22" viewBox="0 0 22 22" x="0" y="544">
<path fill="none" stroke="#5c5c5c" stroke-linejoin="miter" stroke-linecap="butt" stroke-miterlimit="4" stroke-width="1" d="M9 9.5c-2 0-3 0-3 0s-1.333 3.5-4 10.5"></path>
<path fill="#fff" stroke="#5c5c5c" stroke-linejoin="miter" stroke-linecap="butt" stroke-miterlimit="4" stroke-width="1" d="M10.5 4.5h8v10h-8v-10z"></path>
<path fill="#fff" d="M11 4h1v1h-1v-1z"></path>
<path fill="#fff" d="M11 14h1v1h-1v-1z"></path>
<path fill="#fff" d="M13 4h1v1h-1v-1z"></path>
<path fill="#fff" d="M13 14h1v1h-1v-1z"></path>
<path fill="#fff" d="M15 4h1v1h-1v-1z"></path>
<path fill="#fff" d="M15 14h1v1h-1v-1z"></path>
<path fill="#fff" d="M17 4h1v1h-1v-1z"></path>
<path fill="#fff" d="M18 5h1v1h-1v-1z"></path>
<path fill="#fff" d="M10 5h1v1h-1v-1z"></path>
<path fill="#fff" d="M18 7h1v1h-1v-1z"></path>
<path fill="#fff" d="M10 7h1v1h-1v-1z"></path>
<path fill="#fff" d="M18 9h1v1h-1v-1z"></path>
<path fill="#fff" d="M10 9h1v1h-1v-1z"></path>
<path fill="#fff" d="M18 11h1v1h-1v-1z"></path>
<path fill="#fff" d="M10 11h1v1h-1v-1z"></path>
<path fill="#fff" d="M18 13h1v1h-1v-1z"></path>
<path fill="#fff" d="M10 13h1v1h-1v-1z"></path>
<path fill="#fff" d="M17 14h1v1h-1v-1z"></path>
<path fill="#f8f8f8" stroke="#5c5c5c" stroke-linejoin="miter" stroke-linecap="butt" stroke-miterlimit="4" stroke-width="1" d="M8.5 4.5h1v10h-1v-10z"></path>
<path fill="#fff" d="M9 4h1v11h-1v-11z"></path>
</svg>
<svg id="icon-accentBorderCallout2" width="22" height="22" viewBox="0 0 22 22" x="0" y="576">
<path fill="none" stroke="#5c5c5c" stroke-linejoin="miter" stroke-linecap="butt" stroke-miterlimit="4" stroke-width="1" d="M9 9.5c-2 0-3 0-3 0s-1.333 3.5-4 10.5"></path>
<path fill="#fff" stroke="#5c5c5c" stroke-linejoin="miter" stroke-linecap="butt" stroke-miterlimit="4" stroke-width="1" d="M10.5 4.5h8v10h-8v-10z"></path>
<path fill="#f8f8f8" stroke="#5c5c5c" stroke-linejoin="miter" stroke-linecap="butt" stroke-miterlimit="4" stroke-width="1" d="M8.5 4.5h1v10h-1v-10z"></path>
<path fill="#fff" d="M9 4h1v11h-1v-11z"></path>
</svg>
<svg id="icon-callout2" width="22" height="22" viewBox="0 0 22 22" x="0" y="608">
<path fill="none" stroke="#5c5c5c" stroke-linejoin="miter" stroke-linecap="butt" stroke-miterlimit="4" stroke-width="1" d="M9 9.5c-2 0-3 0-3 0s-1.333 3.5-4 10.5"></path>
<path fill="#fff" stroke="#5c5c5c" stroke-linejoin="miter" stroke-linecap="butt" stroke-miterlimit="4" stroke-width="1" d="M8.5 4.5h10v10h-10v-10z"></path>
<path fill="#fff" d="M9 4h1v1h-1v-1z"></path>
<path fill="#fff" d="M9 14h1v1h-1v-1z"></path>
<path fill="#fff" d="M8 5h1v1h-1v-1z"></path>
<path fill="#fff" d="M18 5h1v1h-1v-1z"></path>
<path fill="#fff" d="M8 9h1v1h-1v-1z"></path>
<path fill="#fff" d="M18 9h1v1h-1v-1z"></path>
<path fill="#fff" d="M8 7h1v1h-1v-1z"></path>
<path fill="#fff" d="M18 7h1v1h-1v-1z"></path>
<path fill="#fff" d="M8 11h1v1h-1v-1z"></path>
<path fill="#fff" d="M18 11h1v1h-1v-1z"></path>
<path fill="#fff" d="M8 13h1v1h-1v-1z"></path>
<path fill="#fff" d="M18 13h1v1h-1v-1z"></path>
<path fill="#fff" d="M13 4h1v1h-1v-1z"></path>
<path fill="#fff" d="M13 14h1v1h-1v-1z"></path>
<path fill="#fff" d="M11 4h1v1h-1v-1z"></path>
<path fill="#fff" d="M11 14h1v1h-1v-1z"></path>
<path fill="#fff" d="M15 4h1v1h-1v-1z"></path>
<path fill="#fff" d="M15 14h1v1h-1v-1z"></path>
<path fill="#fff" d="M17 4h1v1h-1v-1z"></path>
<path fill="#fff" d="M17 14h1v1h-1v-1z"></path>
</svg>
<svg id="icon-borderCallout3" width="22" height="22" viewBox="0 0 22 22" x="0" y="640">
<path fill="none" stroke="#5c5c5c" stroke-linejoin="miter" stroke-linecap="butt" stroke-miterlimit="4" stroke-width="1" d="M9 9.5c-3.667 0-5.5 0-5.5 0s0 1.833 0 5.5l6.5 5"></path>
<path fill="#fff" stroke="#5c5c5c" stroke-linejoin="miter" stroke-linecap="butt" stroke-miterlimit="4" stroke-width="1" d="M8.5 4.5h10v10h-10v-10z"></path>
</svg>
<svg id="icon-accentCallout3" width="22" height="22" viewBox="0 0 22 22" x="0" y="672">
<path fill="none" stroke="#5c5c5c" stroke-linejoin="miter" stroke-linecap="butt" stroke-miterlimit="4" stroke-width="1" d="M9 9.5c-3.667 0-5.5 0-5.5 0s0 1.833 0 5.5l6.5 5"></path>
<path fill="#fff" stroke="#5c5c5c" stroke-linejoin="miter" stroke-linecap="butt" stroke-miterlimit="4" stroke-width="1" d="M10.5 4.5h8v10h-8v-10z"></path>
<path fill="#fff" d="M11 4h1v1h-1v-1z"></path>
<path fill="#fff" d="M11 14h1v1h-1v-1z"></path>
<path fill="#fff" d="M13 4h1v1h-1v-1z"></path>
<path fill="#fff" d="M13 14h1v1h-1v-1z"></path>
<path fill="#fff" d="M15 4h1v1h-1v-1z"></path>
<path fill="#fff" d="M15 14h1v1h-1v-1z"></path>
<path fill="#fff" d="M17 4h1v1h-1v-1z"></path>
<path fill="#fff" d="M18 5h1v1h-1v-1z"></path>
<path fill="#fff" d="M10 5h1v1h-1v-1z"></path>
<path fill="#fff" d="M18 7h1v1h-1v-1z"></path>
<path fill="#fff" d="M10 7h1v1h-1v-1z"></path>
<path fill="#fff" d="M18 9h1v1h-1v-1z"></path>
<path fill="#fff" d="M10 9h1v1h-1v-1z"></path>
<path fill="#fff" d="M18 11h1v1h-1v-1z"></path>
<path fill="#fff" d="M10 11h1v1h-1v-1z"></path>
<path fill="#fff" d="M18 13h1v1h-1v-1z"></path>
<path fill="#fff" d="M10 13h1v1h-1v-1z"></path>
<path fill="#fff" d="M17 14h1v1h-1v-1z"></path>
<path fill="#f8f8f8" stroke="#5c5c5c" stroke-linejoin="miter" stroke-linecap="butt" stroke-miterlimit="4" stroke-width="1" d="M8.5 4.5h1v10h-1v-10z"></path>
<path fill="#fff" d="M9 4h1v11h-1v-11z"></path>
</svg>
<svg id="icon-accentBorderCallout3" width="22" height="22" viewBox="0 0 22 22" x="0" y="704">
<path fill="none" stroke="#5c5c5c" stroke-linejoin="miter" stroke-linecap="butt" stroke-miterlimit="4" stroke-width="1" d="M9 9.5c-3.667 0-5.5 0-5.5 0s0 1.833 0 5.5l6.5 5"></path>
<path fill="#fff" stroke="#5c5c5c" stroke-linejoin="miter" stroke-linecap="butt" stroke-miterlimit="4" stroke-width="1" d="M10.5 4.5h8v10h-8v-10z"></path>
<path fill="#f8f8f8" stroke="#5c5c5c" stroke-linejoin="miter" stroke-linecap="butt" stroke-miterlimit="4" stroke-width="1" d="M8.5 4.5h1v10h-1v-10z"></path>
<path fill="#fff" d="M9 4h1v11h-1v-11z"></path>
</svg>
<svg id="icon-callout3" width="22" height="22" viewBox="0 0 22 22" x="0" y="736">
<path fill="none" stroke="#5c5c5c" stroke-linejoin="miter" stroke-linecap="butt" stroke-miterlimit="4" stroke-width="1" d="M9 9.5c-3.667 0-5.5 0-5.5 0s0 1.833 0 5.5l6.5 5"></path>
<path fill="#fff" stroke="#5c5c5c" stroke-linejoin="miter" stroke-linecap="butt" stroke-miterlimit="4" stroke-width="1" d="M8.5 4.5h10v10h-10v-10z"></path>
<path fill="#fff" d="M9 4h1v1h-1v-1z"></path>
<path fill="#fff" d="M9 14h1v1h-1v-1z"></path>
<path fill="#fff" d="M8 5h1v1h-1v-1z"></path>
<path fill="#fff" d="M18 5h1v1h-1v-1z"></path>
<path fill="#fff" d="M8 9h1v1h-1v-1z"></path>
<path fill="#fff" d="M18 9h1v1h-1v-1z"></path>
<path fill="#fff" d="M8 7h1v1h-1v-1z"></path>
<path fill="#fff" d="M18 7h1v1h-1v-1z"></path>
<path fill="#fff" d="M8 11h1v1h-1v-1z"></path>
<path fill="#fff" d="M18 11h1v1h-1v-1z"></path>
<path fill="#fff" d="M8 13h1v1h-1v-1z"></path>
<path fill="#fff" d="M18 13h1v1h-1v-1z"></path>
<path fill="#fff" d="M13 4h1v1h-1v-1z"></path>
<path fill="#fff" d="M13 14h1v1h-1v-1z"></path>
<path fill="#fff" d="M11 4h1v1h-1v-1z"></path>
<path fill="#fff" d="M11 14h1v1h-1v-1z"></path>
<path fill="#fff" d="M15 4h1v1h-1v-1z"></path>
<path fill="#fff" d="M15 14h1v1h-1v-1z"></path>
<path fill="#fff" d="M17 4h1v1h-1v-1z"></path>
<path fill="#fff" d="M17 14h1v1h-1v-1z"></path>
</svg>
<svg id="icon-wedgeEllipseCallout" width="22" height="22" viewBox="0 0 22 22" x="0" y="768">
<path fill="#fff" stroke="#5c5c5c" stroke-linejoin="miter" stroke-linecap="butt" stroke-miterlimit="4" stroke-width="1" d="M7.5 17.793l2.359-2.359 0.235 0.023c0.299 0.029 0.601 0.043 0.906 0.043 4.162 0 7.5-2.712 7.5-6s-3.338-6-7.5-6c-4.162 0-7.5 2.712-7.5 6 0 2.141 1.423 4.102 3.713 5.178l0.287 0.135v2.98z"></path>
</svg>
<svg id="icon-cloudCallout" width="22" height="22" viewBox="0 0 22 22" x="0" y="800">
<path fill="none" stroke="#5c5c5c" stroke-linejoin="miter" stroke-linecap="butt" stroke-miterlimit="4" stroke-width="1" d="M16.559 12.903l0.089-0.275 0.282-0.061c1.492-0.322 2.571-1.624 2.571-3.139 0-1.773-1.466-3.214-3.278-3.214-0.057 0-0.113 0.001-0.169 0.004l-0.396 0.020-0.109-0.381c-0.564-1.969-2.402-3.357-4.52-3.357-2.595 0-4.694 2.065-4.694 4.607 0 0.015 0 0.015 0 0.030l0.003 0.437-0.433 0.061c-1.373 0.193-2.403 1.352-2.403 2.722 0 1.517 1.254 2.75 2.806 2.75 0.283 0 0.56-0.041 0.825-0.121l0.364-0.109 0.203 0.321c0.509 0.803 1.403 1.302 2.386 1.302 0.709 0 1.374-0.258 1.887-0.715l0.354-0.316 0.334 0.337c0.437 0.441 1.034 0.694 1.675 0.694 1.027 0 1.922-0.655 2.226-1.597z"></path>
<path fill="none" stroke="#5c5c5c" stroke-linejoin="miter" stroke-linecap="butt" stroke-miterlimit="4" stroke-width="1" d="M8 16c0 0.552-0.448 1-1 1s-1-0.448-1-1c0-0.552 0.448-1 1-1s1 0.448 1 1z"></path>
<path fill="none" stroke="#5c5c5c" stroke-linejoin="miter" stroke-linecap="butt" stroke-miterlimit="4" stroke-width="1" d="M5 19c0 0.552-0.448 1-1 1s-1-0.448-1-1c0-0.552 0.448-1 1-1s1 0.448 1 1z"></path>
</svg>
<svg id="icon-wedgeRectCallout" width="22" height="22" viewBox="0 0 22 22" x="0" y="832">
<path fill="#fff" stroke="#5c5c5c" stroke-linejoin="miter" stroke-linecap="butt" stroke-miterlimit="4" stroke-width="1" d="M18.5 14.5v-11h-15v11h4v3.293l3.293-3.293h7.707z"></path>
</svg>
<svg id="icon-wedgeRoundRectCallout" width="22" height="22" viewBox="0 0 22 22" x="0" y="864">
<path fill="#fff" stroke="#5c5c5c" stroke-linejoin="miter" stroke-linecap="butt" stroke-miterlimit="4" stroke-width="1" d="M7.5 17.793l3.293-3.293h5.207c1.381 0 2.5-1.119 2.5-2.5v-6c0-1.381-1.119-2.5-2.5-2.5h-10c-1.381 0-2.5 1.119-2.5 2.5v6c0 1.381 1.119 2.5 2.5 2.5h1.5v3.293z"></path>
</svg>
<svg id="icon-ellipseRibbon" width="22" height="22" viewBox="0 0 22 22" x="0" y="896">
<path fill="none" stroke="#5c5c5c" stroke-linejoin="miter" stroke-linecap="butt" stroke-miterlimit="4" stroke-width="1" d="M14.5 6.5h5.5l-2.625 3.5 2.625 3.5h-5.5v-7z"></path>
<path fill="none" stroke="#5c5c5c" stroke-linejoin="miter" stroke-linecap="butt" stroke-miterlimit="4" stroke-width="1" d="M7.5 6.5h-5.5l2.625 3.5-2.625 3.5h5.5v-7z"></path>
<path fill="#5c5c5c" d="M15.091 15.879c-1.187 0.724-2.603 1.121-4.091 1.121s-2.904-0.397-4.091-1.121v-6.541c1.225 0.647 2.629 0.996 4.091 0.996s2.866-0.349 4.091-0.996v6.541zM15.311 8.072c-1.23 0.813-2.73 1.261-4.311 1.261s-3.081-0.448-4.311-1.261c-0.303-0.2-0.689 0.040-0.689 0.429v7.667c0 0.176 0.084 0.338 0.22 0.429 1.373 0.907 3.035 1.404 4.78 1.404s3.407-0.497 4.78-1.404c0.137-0.090 0.22-0.253 0.22-0.429v-7.667c0-0.389-0.386-0.629-0.689-0.429z"></path>
<path fill="#fff" d="M15.091 15.879c-1.187 0.724-2.603 1.121-4.091 1.121s-2.904-0.397-4.091-1.121v-6.541c1.225 0.647 2.629 0.996 4.091 0.996s2.866-0.349 4.091-0.996v6.541z"></path>
</svg>
<svg id="icon-ellipseRibbon2" width="22" height="22" viewBox="0 0 22 22" x="0" y="928">
<path fill="none" stroke="#5c5c5c" stroke-linejoin="miter" stroke-linecap="butt" stroke-miterlimit="4" stroke-width="1" d="M14.5 16.5h5.5l-2.625-3.5 2.625-3.5h-5.5v7z"></path>
<path fill="none" stroke="#5c5c5c" stroke-linejoin="miter" stroke-linecap="butt" stroke-miterlimit="4" stroke-width="1" d="M7.5 16.5h-5.5l2.625-3.5-2.625-3.5h5.5v7z"></path>
<path fill="#5c5c5c" d="M15.091 7.121c-1.187-0.724-2.603-1.121-4.091-1.121s-2.904 0.397-4.091 1.121v6.541c1.225-0.647 2.629-0.996 4.091-0.996s2.866 0.349 4.091 0.996v-6.541zM15.311 14.928c-1.23-0.813-2.73-1.261-4.311-1.261s-3.081 0.448-4.311 1.261c-0.303 0.2-0.689-0.040-0.689-0.429v-7.667c0-0.176 0.084-0.338 0.22-0.429 1.373-0.907 3.035-1.404 4.78-1.404s3.407 0.497 4.78 1.404c0.137 0.090 0.22 0.253 0.22 0.429v7.667c0 0.389-0.386 0.629-0.689 0.429z"></path>
<path fill="#fff" d="M15.091 7.121c-1.187-0.724-2.603-1.121-4.091-1.121s-2.904 0.397-4.091 1.121v6.541c1.225-0.647 2.629-0.996 4.091-0.996s2.866 0.349 4.091 0.996v-6.541z"></path>
</svg>
<svg id="icon-ribbon" width="22" height="22" viewBox="0 0 22 22" x="0" y="960">
<path fill="none" stroke="#5c5c5c" stroke-linejoin="miter" stroke-linecap="butt" stroke-miterlimit="4" stroke-width="1" d="M7.5 13.5h-5.5l2.625-3.5-2.625-3.5h5.5v7z"></path>
<path fill="none" stroke="#5c5c5c" stroke-linejoin="miter" stroke-linecap="butt" stroke-miterlimit="4" stroke-width="1" d="M14.5 13.5h5.5l-2.625-3.5 2.625-3.5h-5.5v7z"></path>
<path fill="#fff" stroke="#5c5c5c" stroke-linejoin="miter" stroke-linecap="butt" stroke-miterlimit="4" stroke-width="1" d="M7.5 16.5h7c0.552 0 1-0.448 1-1v-6c0-0.552-0.448-1-1-1h-7c-0.552 0-1 0.448-1 1v6c0 0.552 0.448 1 1 1z"></path>
</svg>
<svg id="icon-irregularSeal1" width="22" height="22" viewBox="0 0 22 22" x="0" y="992">
<path fill="none" stroke="#5c5c5c" stroke-linejoin="miter" stroke-linecap="butt" stroke-miterlimit="4" stroke-width="1" d="M4.621 13.5h3.943l-0.479 3.992 2.143-2.382 1.597 3.332 0.621-3.042 3.818 0.855-2.552-4.213h3.266l-3.291-3.238 4.437-1.643-4.025-0.745v-3.113l-3.1 3.444-3.1-3.444v4.197h-4.385l4.748 3.517-3.642 2.483z"></path>
</svg>
<svg id="icon-irregularSeal2" width="22" height="22" viewBox="0 0 22 22" x="0" y="1024">
<path fill="none" stroke="#5c5c5c" stroke-linejoin="miter" stroke-linecap="butt" stroke-miterlimit="4" stroke-width="1" d="M4.118 9.5l2.776 1.388-3.551 3.068h3.809l-0.482 4.488 2.302-2.697 2.2 2.208 0.537-3.26 1.954 2.835 1.042-3.014 2.51 1.084-0.838-2.799 2.451-0.687-2.867-1.939 2.947-1.253-2.887-1.748 1.843-3.2-4.388 1.691-0.614-2.268-1.798 3.596-1.562-2.343v3.283l-2.839-1.893 0.515 3.459h-3.058z"></path>
</svg>
<svg id="icon-horizontalScroll" width="22" height="22" viewBox="0 0 22 22" x="0" y="1056">
<path fill="#5c5c5c" d="M3 5.5c0-0.828 0.672-1.5 1.5-1.5h1.5v2h10.5c0.828 0 1.5 0.672 1.5 1.5v9c0 1.381-1.119 2.5-2.5 2.5h-0.5v-1h-10.5c-0.828 0-1.5-0.672-1.5-1.5v-11zM4 6.915v9.585c0 0.276 0.224 0.5 0.5 0.5h10.5v-9h1.5c0.276 0 0.5-0.224 0.5-0.5s-0.224-0.5-0.5-0.5h-12v-1h12v1h-12c-0.175 0-0.344-0.030-0.5-0.085zM17 8.915c-0.156 0.055-0.325 0.085-0.5 0.085h-0.5v8.915c0.583-0.206 1-0.762 1-1.415l0-7.585zM5 5h-0.5c-0.276 0-0.5 0.224-0.5 0.5s0.224 0.5 0.5 0.5h0.5v-1z"></path>
</svg>
<svg id="icon-star4" width="22" height="22" viewBox="0 0 22 22" x="0" y="1088">
<path fill="none" stroke="#5c5c5c" stroke-linejoin="miter" stroke-linecap="butt" stroke-miterlimit="4" stroke-width="1" d="M17.87 11l-5.534-1.336-1.336-5.534-1.336 5.534-5.534 1.336 5.534 1.336 1.336 5.534 1.336-5.534 5.534-1.336z"></path>
</svg>
<svg id="icon-star5" width="22" height="22" viewBox="0 0 22 22" x="0" y="1120">
<path fill="none" stroke="#5c5c5c" stroke-linejoin="miter" stroke-linecap="butt" stroke-miterlimit="4" stroke-width="1" d="M15.355 16.994l-1.629-5.108 4.32-3.175-5.361-0.030-1.685-5.090-1.685 5.090-5.361 0.030 4.32 3.175-1.629 5.108 4.355-3.127 4.355 3.127z"></path>
</svg>
<svg id="icon-star8" width="22" height="22" viewBox="0 0 22 22" x="0" y="1152">
<path fill="#5c5c5c" d="M13.021 5.998l-2.084-2.254-2.044 2.29-3.068-0.12 0.174 3.065-2.254 2.084 2.29 2.044-0.12 3.068 3.065-0.174 2.084 2.254 2.044-2.29 3.068 0.12-0.174-3.065 2.254-2.084-2.29-2.044 0.12-3.068-3.065 0.174zM16.726 16.108l-0.519 0.528-0.031-0.55 0.55 0.022zM17.128 4.764l-0.145 3.697 2.76 2.464-2.716 2.511 0.21 3.693-3.697-0.145-2.464 2.76-2.511-2.716-3.693 0.21 0.145-3.697-2.76-2.464 2.716-2.511-0.21-3.693 3.697 0.145 2.464-2.76 2.511 2.716 3.693-0.21zM13.595 5.146l-0.395-0.16 0.235-0.013 0.16 0.173z"></path>
<path fill="#5c5c5c" d="M9.97 12.351c0 0.334 0.092 0.593 0.276 0.777s0.438 0.276 0.762 0.276c0.324 0 0.578-0.092 0.762-0.276s0.276-0.443 0.276-0.777c0-0.347-0.094-0.609-0.281-0.789s-0.439-0.269-0.757-0.269c-0.318 0-0.57 0.090-0.757 0.269s-0.281 0.442-0.281 0.789zM8.5 12.44c0-0.381 0.092-0.726 0.276-1.035s0.453-0.542 0.807-0.698c-0.348-0.219-0.573-0.455-0.678-0.709s-0.156-0.492-0.156-0.714c0-0.493 0.197-0.914 0.591-1.262s0.95-0.522 1.668-0.522c0.718 0 1.274 0.174 1.668 0.522s0.591 0.769 0.591 1.262c0 0.222-0.052 0.46-0.156 0.714s-0.33 0.475-0.678 0.663c0.354 0.187 0.621 0.435 0.799 0.744s0.268 0.654 0.268 1.035c0 0.571-0.224 1.057-0.673 1.459s-1.075 0.602-1.879 0.602c-0.804 0-1.413-0.201-1.827-0.602s-0.621-0.887-0.621-1.459zM10.099 9.434c0 0.247 0.080 0.448 0.241 0.604s0.383 0.234 0.668 0.234c0.288 0 0.511-0.078 0.668-0.234s0.236-0.357 0.236-0.604c0-0.268-0.079-0.478-0.236-0.63s-0.38-0.227-0.668-0.227c-0.285 0-0.507 0.076-0.668 0.227s-0.241 0.361-0.241 0.63z"></path>
</svg>
<svg id="icon-star16" width="22" height="22" viewBox="0 0 22 22" x="0" y="1184">
<path fill="#5c5c5c" d="M12.315 6.092l-1.315-2.161-1.315 2.161-2.219-1.214-0.059 2.529-2.529 0.059 1.214 2.219-2.161 1.315 2.161 1.315-1.214 2.219 2.529 0.059 0.059 2.529 2.219-1.214 1.315 2.161 1.315-2.161 2.219 1.214 0.059-2.529 2.529-0.059-1.214-2.219 2.161-1.315-2.161-1.315 1.214-2.219-2.529-0.059-0.059-2.529-2.219 1.214zM15.5 3.206l0.075 3.22 3.22 0.075-1.545 2.826 2.751 1.674-2.751 1.674 1.545 2.826-3.22 0.075-0.075 3.22-2.826-1.545-1.674 2.751-1.674-2.751-2.826 1.545-0.075-3.22-3.22-0.075 1.545-2.826-2.751-1.674 2.751-1.674-1.545-2.826 3.22-0.075 0.075-3.22 2.826 1.545 1.674-2.751 1.674 2.751 2.826-1.545zM9.746 4.981l-0.67 0.179 0.249-0.409 0.421 0.23zM6.905 6.414l-0.49 0.49 0.011-0.479 0.479-0.011zM12.924 5.16l-0.67-0.179 0.421-0.23 0.249 0.409z"></path>
<path fill="#5c5c5c" d="M7 9.854v-0.775c0.36-0.016 0.611-0.040 0.755-0.072 0.229-0.051 0.415-0.152 0.559-0.304 0.099-0.104 0.173-0.242 0.224-0.415 0.029-0.104 0.044-0.181 0.044-0.232h0.947v5.792h-1.166v-3.995h-1.362zM11.726 12.015c0 0.312 0.084 0.566 0.252 0.763s0.381 0.296 0.639 0.296c0.253 0 0.452-0.095 0.597-0.286s0.218-0.437 0.218-0.741c0-0.338-0.083-0.597-0.248-0.777s-0.368-0.27-0.607-0.27c-0.194 0-0.366 0.059-0.515 0.176-0.224 0.173-0.336 0.453-0.336 0.839zM13.328 9.514c0-0.093-0.036-0.196-0.108-0.308-0.123-0.181-0.308-0.272-0.555-0.272-0.37 0-0.634 0.208-0.791 0.623-0.085 0.229-0.144 0.567-0.176 1.015 0.141-0.168 0.305-0.29 0.491-0.368s0.399-0.116 0.639-0.116c0.514 0 0.935 0.174 1.264 0.523s0.493 0.795 0.493 1.338c0 0.541-0.161 1.017-0.483 1.43s-0.823 0.619-1.502 0.619c-0.73 0-1.268-0.305-1.614-0.915-0.269-0.477-0.403-1.092-0.403-1.846 0-0.442 0.019-0.802 0.056-1.079 0.067-0.493 0.196-0.903 0.387-1.23 0.165-0.28 0.381-0.505 0.649-0.675s0.588-0.256 0.961-0.256c0.538 0 0.967 0.138 1.286 0.413s0.499 0.642 0.539 1.101h-1.134z"></path>
</svg>
<svg id="icon-star24" width="22" height="22" viewBox="0 0 22 22" x="0" y="1216">
<path fill="#5c5c5c" d="M12.315 6.092l-1.315-2.161-1.315 2.161-2.219-1.214-0.059 2.529-2.529 0.059 1.214 2.219-2.161 1.315 2.161 1.315-1.214 2.219 2.529 0.059 0.059 2.529 2.219-1.214 1.315 2.161 1.315-2.161 2.219 1.214 0.059-2.529 2.529-0.059-1.214-2.219 2.161-1.315-2.161-1.315 1.214-2.219-2.529-0.059-0.059-2.529-2.219 1.214zM15.5 3.206l0.075 3.22 3.22 0.075-1.545 2.826 2.751 1.674-2.751 1.674 1.545 2.826-3.22 0.075-0.075 3.22-2.826-1.545-1.674 2.751-1.674-2.751-2.826 1.545-0.075-3.22-3.22-0.075 1.545-2.826-2.751-1.674 2.751-1.674-1.545-2.826 3.22-0.075 0.075-3.22 2.826 1.545 1.674-2.751 1.674 2.751 2.826-1.545z"></path>
<path fill="#5c5c5c" d="M7 14c0.011-0.428 0.103-0.819 0.276-1.174 0.167-0.398 0.563-0.819 1.186-1.264 0.541-0.387 0.891-0.664 1.050-0.832 0.244-0.261 0.367-0.546 0.367-0.857 0-0.253-0.070-0.463-0.21-0.63s-0.34-0.251-0.601-0.251c-0.357 0-0.6 0.133-0.729 0.399-0.074 0.154-0.118 0.398-0.132 0.733h-1.141c0.019-0.508 0.111-0.918 0.276-1.231 0.313-0.596 0.869-0.894 1.668-0.894 0.631 0 1.134 0.175 1.507 0.525s0.56 0.813 0.56 1.39c0 0.442-0.132 0.835-0.395 1.178-0.173 0.228-0.457 0.482-0.852 0.762l-0.469 0.334c-0.294 0.209-0.495 0.36-0.603 0.453s-0.2 0.202-0.274 0.325h2.607v1.034h-4.089zM15.163 12.715h-0.675v1.285h-1.149v-1.285h-2.364v-1.025l2.195-3.624h1.318v3.731h0.675v0.918zM13.338 11.797v-2.578l-1.495 2.578h1.495z"></path>
</svg>
<svg id="icon-star32" width="22" height="22" viewBox="0 0 22 22" x="0" y="1248">
<path fill="#5c5c5c" d="M12.315 6.092l-1.315-2.161-1.315 2.161-2.219-1.214-0.059 2.529-2.529 0.059 1.214 2.219-2.161 1.315 2.161 1.315-1.214 2.219 2.529 0.059 0.059 2.529 2.219-1.214 1.315 2.161 1.315-2.161 2.219 1.214 0.059-2.529 2.529-0.059-1.214-2.219 2.161-1.315-2.161-1.315 1.214-2.219-2.529-0.059-0.059-2.529-2.219 1.214zM15.5 3.206l0.075 3.22 3.22 0.075-1.545 2.826 2.751 1.674-2.751 1.674 1.545 2.826-3.22 0.075-0.075 3.22-2.826-1.545-1.674 2.751-1.674-2.751-2.826 1.545-0.075-3.22-3.22-0.075 1.545-2.826-2.751-1.674 2.751-1.674-1.545-2.826 3.22-0.075 0.075-3.22 2.826 1.545 1.674-2.751 1.674 2.751 2.826-1.545z"></path>
<path fill="#5c5c5c" d="M8.125 12.067c0 0.233 0.038 0.426 0.113 0.579 0.139 0.281 0.392 0.422 0.76 0.422 0.225 0 0.421-0.077 0.589-0.231s0.251-0.376 0.251-0.665c0-0.383-0.155-0.639-0.466-0.768-0.177-0.072-0.455-0.108-0.836-0.108v-0.82c0.372-0.005 0.632-0.042 0.78-0.108 0.255-0.113 0.382-0.34 0.382-0.683 0-0.222-0.065-0.403-0.195-0.543s-0.313-0.209-0.549-0.209c-0.271 0-0.47 0.086-0.597 0.257s-0.188 0.401-0.183 0.687h-1.069c0.011-0.289 0.060-0.564 0.149-0.824 0.094-0.228 0.241-0.438 0.442-0.631 0.15-0.137 0.328-0.241 0.534-0.313s0.459-0.108 0.76-0.108c0.557 0 1.007 0.144 1.348 0.432s0.512 0.674 0.512 1.159c0 0.343-0.102 0.632-0.305 0.868-0.129 0.147-0.263 0.248-0.402 0.301 0.104 0 0.255 0.090 0.45 0.269 0.292 0.271 0.438 0.64 0.438 1.109 0 0.493-0.171 0.926-0.512 1.3s-0.847 0.561-1.517 0.561c-0.825 0-1.399-0.269-1.72-0.808-0.169-0.287-0.263-0.662-0.281-1.125h1.125zM10.959 13.855c0.011-0.418 0.1-0.8 0.269-1.145 0.163-0.388 0.549-0.8 1.157-1.234 0.528-0.378 0.869-0.648 1.025-0.812 0.238-0.255 0.358-0.533 0.358-0.836 0-0.246-0.068-0.451-0.205-0.615s-0.332-0.245-0.587-0.245c-0.348 0-0.585 0.13-0.711 0.39-0.072 0.15-0.115 0.388-0.129 0.715h-1.113c0.019-0.496 0.108-0.896 0.269-1.202 0.305-0.581 0.848-0.872 1.628-0.872 0.616 0 1.106 0.171 1.471 0.512s0.547 0.794 0.547 1.356c0 0.431-0.129 0.814-0.386 1.149-0.169 0.222-0.446 0.47-0.832 0.743l-0.458 0.326c-0.287 0.204-0.483 0.351-0.589 0.442s-0.195 0.197-0.267 0.317h2.544v1.009h-3.991z"></path>
</svg>
<svg id="icon-star6" width="22" height="22" viewBox="0 0 22 22" x="0" y="1280">
<path fill="#5c5c5c" d="M13.080 14.51l4.148-0.007-2.068-3.503 2.068-3.503-4.148-0.007-2.080-3.496-2.080 3.496-4.148 0.007 2.068 3.503-2.068 3.503 4.148 0.007 2.080 3.496 2.080-3.496zM17.817 6.498l0.588 0.001 0.298 0.503-0.293 0.497-1.183-0.002 0.59-0.999zM10.407 2.997l0.295-0.496h0.597l0.295 0.496-0.593 0.997-0.593-0.997zM3.59 7.499l-0.293-0.497 0.298-0.503 0.588-0.001 0.59 0.999-1.183 0.002zM13.672 15.509l-2.672 4.491-2.672-4.491-5.328-0.009 2.656-4.5-2.656-4.5 5.328-0.009 2.672-4.491 2.672 4.491 5.328 0.009-2.656 4.5 2.656 4.5-5.328 0.009z"></path>
</svg>
<svg id="icon-star7" width="22" height="22" viewBox="0 0 22 22" x="0" y="1312">
<path fill="none" stroke="#5c5c5c" stroke-linejoin="miter" stroke-linecap="butt" stroke-miterlimit="4" stroke-width="1" d="M11.049 2.833l-2.802 3.667h-4.47l1.615 3.546-2.616 3.296 3.675 1.816 0.867 4.068 3.663-1.805 3.645 1.842 0.906-4.059 3.693-1.778-2.579-3.317 1.588-3.61h-4.487l-2.698-3.667z"></path>
</svg>
<svg id="icon-star10" width="22" height="22" viewBox="0 0 22 22" x="0" y="1344">
<path fill="#5c5c5c" d="M12.69 6.054l-1.69-2.289-1.69 2.289-2.781-0.907 0.047 2.796-2.811 0.821 1.766 2.236-1.766 2.236 2.811 0.821-0.047 2.796 2.781-0.907 1.69 2.289 1.69-2.289 2.781 0.907-0.047-2.796 2.811-0.821-1.766-2.236 1.766-2.236-2.811-0.821 0.047-2.796-2.781 0.907zM13.102 4.847l3.46-1.128-0.059 3.478 3.497 1.022-2.198 2.781 2.198 2.781-3.497 1.022 0.059 3.478-3.46-1.128-2.102 2.847-2.102-2.847-3.46 1.128 0.059-3.478-3.497-1.022 2.198-2.781-2.198-2.781 3.497-1.022-0.059-3.478 3.46 1.128 2.102-2.847 2.102 2.847z"></path>
<path fill="#5c5c5c" d="M7 9.845v-0.778c0.361-0.016 0.614-0.040 0.758-0.072 0.23-0.051 0.417-0.152 0.561-0.305 0.099-0.104 0.174-0.243 0.225-0.417 0.029-0.104 0.044-0.182 0.044-0.233h0.951v5.815h-1.171v-4.011h-1.368zM11.765 11.004c0 0.668 0.055 1.18 0.164 1.534s0.334 0.531 0.674 0.531c0.34 0 0.562-0.177 0.668-0.531s0.158-0.866 0.158-1.534c0-0.701-0.053-1.219-0.158-1.556s-0.328-0.505-0.668-0.505c-0.34 0-0.564 0.168-0.674 0.505s-0.164 0.856-0.164 1.556zM12.604 8c0.741 0 1.26 0.261 1.558 0.782s0.447 1.262 0.447 2.222c0 0.96-0.149 1.699-0.447 2.218s-0.818 0.778-1.558 0.778c-0.741 0-1.26-0.259-1.558-0.778s-0.447-1.258-0.447-2.218c0-0.96 0.149-1.701 0.447-2.222s0.818-0.782 1.558-0.782z"></path>
</svg>
<svg id="icon-star12" width="22" height="22" viewBox="0 0 22 22" x="0" y="1376">
<path fill="#5c5c5c" d="M12.315 6.092l-1.315-2.161-1.315 2.161-2.219-1.214-0.059 2.529-2.529 0.059 1.214 2.219-2.161 1.315 2.161 1.315-1.214 2.219 2.529 0.059 0.059 2.529 2.219-1.214 1.315 2.161 1.315-2.161 2.219 1.214 0.059-2.529 2.529-0.059-1.214-2.219 2.161-1.315-2.161-1.315 1.214-2.219-2.529-0.059-0.059-2.529-2.219 1.214zM15.5 3.206l0.075 3.22 3.22 0.075-1.545 2.826 2.751 1.674-2.751 1.674 1.545 2.826-3.22 0.075-0.075 3.22-2.826-1.545-1.674 2.751-1.674-2.751-2.826 1.545-0.075-3.22-3.22-0.075 1.545-2.826-2.751-1.674 2.751-1.674-1.545-2.826 3.22-0.075 0.075-3.22 2.826 1.545 1.674-2.751 1.674 2.751 2.826-1.545z"></path>
<path fill="#5c5c5c" d="M7 9.882v-0.799c0.371-0.016 0.63-0.041 0.778-0.074 0.236-0.052 0.428-0.156 0.577-0.313 0.102-0.107 0.178-0.25 0.231-0.428 0.030-0.107 0.045-0.187 0.045-0.239h0.976v5.971h-1.202v-4.118h-1.404zM10.695 14c0.011-0.428 0.103-0.819 0.276-1.174 0.167-0.398 0.563-0.819 1.186-1.264 0.541-0.387 0.891-0.664 1.050-0.832 0.244-0.261 0.367-0.546 0.367-0.857 0-0.253-0.070-0.463-0.21-0.63s-0.34-0.251-0.601-0.251c-0.357 0-0.6 0.133-0.729 0.399-0.074 0.154-0.118 0.398-0.132 0.733h-1.141c0.019-0.508 0.111-0.918 0.276-1.231 0.313-0.596 0.869-0.894 1.668-0.894 0.631 0 1.134 0.175 1.507 0.525s0.56 0.813 0.56 1.39c0 0.442-0.132 0.835-0.395 1.178-0.173 0.228-0.457 0.482-0.852 0.762l-0.469 0.334c-0.294 0.209-0.495 0.36-0.603 0.453s-0.2 0.202-0.274 0.325h2.607v1.034h-4.089z"></path>
</svg>
<svg id="icon-ribbon2" width="22" height="22" viewBox="0 0 22 22" x="0" y="1408">
<path fill="none" stroke="#5c5c5c" stroke-linejoin="miter" stroke-linecap="butt" stroke-miterlimit="4" stroke-width="1" d="M7.5 9.5h-5.5l2.625 3.5-2.625 3.5h5.5v-7z"></path>
<path fill="none" stroke="#5c5c5c" stroke-linejoin="miter" stroke-linecap="butt" stroke-miterlimit="4" stroke-width="1" d="M14.5 9.5h5.5l-2.625 3.5 2.625 3.5h-5.5v-7z"></path>
<path fill="#fff" stroke="#5c5c5c" stroke-linejoin="miter" stroke-linecap="butt" stroke-miterlimit="4" stroke-width="1" d="M7.5 6.5h7c0.552 0 1 0.448 1 1v6c0 0.552-0.448 1-1 1h-7c-0.552 0-1-0.448-1-1v-6c0-0.552 0.448-1 1-1z"></path>
</svg>
<svg id="icon-verticalScroll" width="22" height="22" viewBox="0 0 22 22" x="0" y="1440">
<path fill="#5c5c5c" d="M4.5 19c-0.828 0-1.5-0.672-1.5-1.5v-1.5h2v-10.5c0-0.828 0.672-1.5 1.5-1.5h9c1.381 0 2.5 1.119 2.5 2.5v0.5h-1v10.5c0 0.828-0.672 1.5-1.5 1.5h-11zM5.915 18h9.585c0.276 0 0.5-0.224 0.5-0.5v-10.5h-9v-1.5c0-0.276-0.224-0.5-0.5-0.5s-0.5 0.224-0.5 0.5v12h-1v-12h1v12c0 0.175-0.030 0.344-0.085 0.5zM7.915 5c0.055 0.156 0.085 0.325 0.085 0.5v0.5h8.915c-0.206-0.583-0.762-1-1.415-1l-7.585-0zM4 17v0.5c0 0.276 0.224 0.5 0.5 0.5s0.5-0.224 0.5-0.5v-0.5h-1z"></path>
</svg>
<svg id="icon-wave" width="22" height="22" viewBox="0 0 22 22" x="0" y="1472">
<path fill="none" stroke="#5c5c5c" stroke-linejoin="miter" stroke-linecap="butt" stroke-miterlimit="4" stroke-width="1" d="M18.5 5.193v10.808l-0.282-0.227c-0.043-0.035-0.087-0.069-0.132-0.103-2.363-1.786-5.716-1.303-7.487 1.077-0.027 0.037-0.055 0.073-0.083 0.108-1.5 1.889-4.233 2.195-6.106 0.684l-0.909-0.733v-10.808l0.282 0.227c0.043 0.035 0.087 0.069 0.132 0.103 2.363 1.786 5.716 1.303 7.487-1.077 0.027-0.037 0.055-0.073 0.083-0.108 1.5-1.889 4.233-2.195 6.106-0.684l0.909 0.733z"></path>
</svg>
<svg id="icon-leftRightUpArrow" width="22" height="22" viewBox="0 0 22 22" x="0" y="1504">
<path fill="#5c5c5c" d="M5 14.586v-0.586h12v0.586l1.586-1.586-1.586-1.586v0.586h-5v-5h0.586l-1.586-1.586-1.586 1.586h0.586v5h-5v-0.586l-1.586 1.586 1.586 1.586zM16 15h-10v2l-4-4 4-4v2h3v-3h-2l4-4 4 4h-2v3h3v-2l4 4-4 4v-2z"></path>
</svg>
<svg id="icon-quadArrow" width="22" height="22" viewBox="0 0 22 22" x="0" y="1536">
<path fill="#5c5c5c" d="M17 9.414v0.586h-5v-5h0.586l-1.586-1.586-1.586 1.586h0.586v5h-5v-0.586l-1.586 1.586 1.586 1.586v-0.586h5v5h-0.586l1.586 1.586 1.586-1.586h-0.586v-5h5v0.586l1.586-1.586-1.586-1.586zM16 9v-2l4 4-4 4v-2h-3v3h2l-4 4-4-4h2v-3h-3v2l-4-4 4-4v2h3v-3h-2l4-4 4 4h-2v3h3z"></path>
</svg>
<svg id="icon-quadArrowCallout" width="22" height="22" viewBox="0 0 22 22" x="0" y="1568">
<path fill="#5c5c5c" d="M8 6l3.5-4 3.5 4h-2v1h2v2h1v-2l4 3.5-4 3.5v-2h-1v2h-2v1h2l-3.5 4-3.5-4h2v-1h-2v-2h-1v2l-4-3.5 4-3.5v2h1v-2h2v-1h-2zM11.5 3.519l-1.296 1.481h0.796v3h-2v2h-3v-0.796l-1.481 1.296 1.481 1.296v-0.796h3v2h2v3h-0.796l1.296 1.481 1.296-1.481h-0.796v-3h2v-2h3v0.796l1.481-1.296-1.481-1.296v0.796h-3v-2h-2v-3h0.796l-1.296-1.481z"></path>
</svg>
<svg id="icon-blockArc" width="22" height="22" viewBox="0 0 22 22" x="0" y="1600">
<path fill="#5c5c5c" d="M18.938 14c-0.492-3.946-3.858-7-7.938-7s-7.446 3.054-7.938 7h2.021c0.476-2.838 2.944-5 5.917-5s5.441 2.162 5.917 5h2.021zM20 15h-4c0-2.761-2.239-5-5-5s-5 2.239-5 5h-4c0-4.971 4.029-9 9-9s9 4.029 9 9z"></path>
</svg>
<svg id="icon-cube" width="22" height="22" viewBox="0 0 22 22" x="0" y="1632">
<path fill="#5c5c5c" d="M18 4.8l-3 2.7v10.086l3-3v-9.786zM7.414 4l-3 3h9.646l3.333-3h-9.98zM19 3.9v11.1l-4 4h-12v-12l4-4h12v0.9zM4 8v10h10v-10h-10z"></path>
</svg>
<svg id="icon-curvedDownArrow" width="22" height="22" viewBox="0 0 22 22" x="0" y="1664">
<path fill="none" stroke="#5c5c5c" stroke-linejoin="miter" stroke-linecap="butt" stroke-miterlimit="4" stroke-width="1" d="M14 12.5h-2l3.5 4.5 3.5-4.5h-2c-0.408-3.946-3.198-7.5-6.579-7.5-0.141 0-0.282 0.005-0.421 0.016-0.139-0.011-0.279-0.016-0.421-0.016-3.381 0-6.171 3.554-6.579 7.5h2.842c0.305-2.949 1.94-5.9 4.158-6.95 2.218 1.050 3.695 4.001 4 6.95z"></path>
</svg>
<svg id="icon-curvedLeftArrow" width="22" height="22" viewBox="0 0 22 22" x="0" y="1696">
<path fill="none" stroke="#5c5c5c" stroke-linejoin="miter" stroke-linecap="butt" stroke-miterlimit="4" stroke-width="1" d="M9.5 14v-2l-4.5 3.5 4.5 3.5v-2c3.946-0.408 7.5-3.198 7.5-6.579 0-0.141-0.005-0.282-0.016-0.421 0.011-0.139 0.016-0.279 0.016-0.421 0-3.381-3.554-6.171-7.5-6.579v2.842c2.949 0.305 5.9 1.94 6.95 4.158-1.050 2.218-4.001 3.695-6.95 4z"></path>
</svg>
<svg id="icon-curvedRightArrow" width="22" height="22" viewBox="0 0 22 22" x="0" y="1728">
<path fill="none" stroke="#5c5c5c" stroke-linejoin="miter" stroke-linecap="butt" stroke-miterlimit="4" stroke-width="1" d="M12.5 14v-2l4.5 3.5-4.5 3.5v-2c-3.946-0.408-7.5-3.198-7.5-6.579 0-0.141 0.005-0.282 0.016-0.421-0.011-0.139-0.016-0.279-0.016-0.421 0-3.381 3.554-6.171 7.5-6.579v2.842c-2.949 0.305-5.9 1.94-6.95 4.158 1.050 2.218 4.001 3.695 6.95 4z"></path>
</svg>
<svg id="icon-curvedUpArrow" width="22" height="22" viewBox="0 0 22 22" x="0" y="1760">
<path fill="none" stroke="#5c5c5c" stroke-linejoin="miter" stroke-linecap="butt" stroke-miterlimit="4" stroke-width="1" d="M14 9.5h-2l3.5-4.5 3.5 4.5h-2c-0.408 3.946-3.198 7.5-6.579 7.5-0.141 0-0.282-0.005-0.421-0.016-0.139 0.011-0.279 0.016-0.421 0.016-3.381 0-6.171-3.554-6.579-7.5h2.842c0.305 2.949 1.94 5.9 4.158 6.95 2.218-1.050 3.695-4.001 4-6.95z"></path>
</svg>
<svg id="icon-halfFrame" width="22" height="22" viewBox="0 0 22 22" x="0" y="1792">
<path fill="none" stroke="#5c5c5c" stroke-linejoin="miter" stroke-linecap="butt" stroke-miterlimit="4" stroke-width="1" d="M15.793 5.5l2-2h-14.293v14.293l2-2v-10.293h10.293z"></path>
</svg>
<svg id="icon-noHeadCurved" width="22" height="22" viewBox="0 0 22 22" x="0" y="1824">
<path fill="#5c5c5c" d="M3.181 4.381l-0.181-1.020c5.208-0.885 8.594-0.148 10.065 2.32 0.764 1.283 0.65 2.693-0.11 4.473-0.209 0.488-0.431 0.939-0.823 1.691-1.313 2.517-1.595 3.379-1.165 4.221 0.783 1.534 3.411 2.178 7.941 1.787l0.093 1.032c-4.924 0.425-7.937-0.313-8.98-2.355-0.656-1.285-0.33-2.279 1.17-5.155 0.381-0.731 0.594-1.162 0.79-1.62 0.645-1.511 0.734-2.609 0.172-3.552-1.19-1.998-4.149-2.641-8.971-1.822z"></path>
</svg>
<svg id="icon-oneEndArrowCurved" width="22" height="22" viewBox="0 0 22 22" x="0" y="1856">
<path fill="#5c5c5c" d="M17 17.959v-1.959l4 2.5-4 2.5v-2.005c-3.747 0.076-6.086-0.716-6.98-2.466-0.656-1.285-0.33-2.279 1.17-5.155 0.381-0.731 0.594-1.162 0.79-1.62 0.645-1.511 0.734-2.609 0.172-3.552-1.19-1.998-4.149-2.641-8.971-1.822l-0.181-1.020c5.208-0.885 8.594-0.148 10.065 2.32 0.764 1.283 0.65 2.693-0.11 4.473-0.209 0.488-0.431 0.939-0.823 1.691-1.313 2.517-1.595 3.379-1.165 4.221 0.666 1.305 2.666 1.965 6.034 1.893z"></path>
</svg>
<svg id="icon-twoEndArrowCurved" width="22" height="22" viewBox="0 0 22 22" x="0" y="1888">
<path fill="#5c5c5c" d="M5 3.091c4.083-0.387 6.792 0.452 8.065 2.589 0.764 1.283 0.65 2.693-0.11 4.473-0.209 0.488-0.431 0.939-0.823 1.691-1.313 2.517-1.595 3.379-1.165 4.221 0.666 1.305 2.666 1.965 6.034 1.893v-1.959l4 2.5-4 2.5v-2.005c-3.747 0.076-6.086-0.716-6.98-2.466-0.656-1.285-0.33-2.279 1.17-5.155 0.381-0.731 0.594-1.162 0.79-1.62 0.645-1.511 0.734-2.609 0.172-3.552-1.032-1.733-3.396-2.447-7.152-2.071v1.868l-4-2.5 4-2.5v2.091z"></path>
</svg>
<svg id="icon-twoEndArrowBent" width="22" height="22" viewBox="0 0 22 22" x="0" y="1920">
<path fill="#5c5c5c" d="M5 5v2l-4-2.5 4-2.5v2h6v13h5v-2l4 2.5-4 2.5v-2h-6v-13h-5z"></path>
</svg>
<svg id="icon-twoEndArrowStraight" width="22" height="22" viewBox="0 0 22 22" x="0" y="1952">
<path fill="#5c5c5c" d="M5.861 5.139l11 11 2.139-2.139v5h-5l2.139-2.139-11-11-2.139 2.139v-5h5l-2.139 2.139z"></path>
</svg>
<svg id="icon-noHeadBent" width="22" height="22" viewBox="0 0 22 22" x="0" y="1984">
<path fill="#5c5c5c" d="M10 4h1v13h7v1h-8v-13h-7v-1h7z"></path>
</svg>
<svg id="icon-oneEndArrowBent" width="22" height="22" viewBox="0 0 22 22" x="0" y="2016">
<path fill="#5c5c5c" d="M16 18h-6v-13h-7v-1h8v13h5v-2l4 2.5-4 2.5v-2z"></path>
</svg>
<svg id="icon-oneEndArrowStraight" width="22" height="22" viewBox="0 0 22 22" x="0" y="2048">
<path fill="#5c5c5c" d="M16.861 16.139l2.139-2.139v5h-5l2.139-2.139-12.139-12.139 0.722-0.722 12.139 12.139z"></path>
</svg>
<svg id="icon-noHeadStraight" width="22" height="22" viewBox="0 0 22 22" x="0" y="2080">
<path fill="#5c5c5c" d="M4 4.673l0.673-0.673 13.327 13.327-0.673 0.673z"></path>
</svg>
<svg id="icon-flowChartAlternateProcess" width="22" height="22" viewBox="0 0 22 22" x="0" y="2112">
<path fill="none" stroke="#5c5c5c" stroke-linejoin="miter" stroke-linecap="butt" stroke-miterlimit="4" stroke-width="1" d="M5.5 3.5h11c1.105 0 2 0.895 2 2v11c0 1.105-0.895 2-2 2h-11c-1.105 0-2-0.895-2-2v-11c0-1.105 0.895-2 2-2z"></path>
</svg>
<svg id="icon-flowChartPunchedCard" width="22" height="22" viewBox="0 0 22 22" x="0" y="2144">
<path fill="none" stroke="#5c5c5c" stroke-linejoin="miter" stroke-linecap="butt" stroke-miterlimit="4" stroke-width="1" d="M18.5 3.5v15h-15v-8.805l5.719-6.195h9.281z"></path>
</svg>
<svg id="icon-flowChartCollate" width="22" height="22" viewBox="0 0 22 22" x="0" y="2176">
<path fill="#5c5c5c" d="M6.147 18h9.705l-4.853-6.232-4.853 6.232zM4 3h14l-7 8.768-7-8.768zM11 10.232l4.853-6.232h-9.705l4.853 6.232zM18 19h-14l7-8.768 7 8.768z"></path>
</svg>
<svg id="icon-flowChartConnector" width="22" height="22" viewBox="0 0 22 22" x="0" y="2208">
<path fill="none" stroke="#5c5c5c" stroke-linejoin="miter" stroke-linecap="butt" stroke-miterlimit="4" stroke-width="1" d="M16.5 11c0 3.038-2.462 5.5-5.5 5.5s-5.5-2.462-5.5-5.5c0-3.038 2.462-5.5 5.5-5.5s5.5 2.462 5.5 5.5z"></path>
</svg>
<svg id="icon-flowChartInputOutput" width="22" height="22" viewBox="0 0 22 22" x="0" y="2240">
<path fill="none" stroke="#5c5c5c" stroke-linejoin="miter" stroke-linecap="butt" stroke-miterlimit="4" stroke-width="1" d="M9.346 3.5l-5.625 15h9.932l5.625-15h-9.932z"></path>
</svg>
<svg id="icon-flowChartDecision" width="22" height="22" viewBox="0 0 22 22" x="0" y="2272">
<path fill="none" stroke="#5c5c5c" stroke-linejoin="miter" stroke-linecap="butt" stroke-miterlimit="4" stroke-width="1" d="M11 4.633l-8.186 6.367 8.186 6.367 8.186-6.367-8.186-6.367z"></path>
</svg>
<svg id="icon-flowChartDelay" width="22" height="22" viewBox="0 0 22 22" x="0" y="2304">
<path fill="none" stroke="#5c5c5c" stroke-linejoin="miter" stroke-linecap="butt" stroke-miterlimit="4" stroke-width="1" d="M3.5 3.5v15h7.5c4.142 0 7.5-3.358 7.5-7.5s-3.358-7.5-7.5-7.5h-7.5z"></path>
</svg>
<svg id="icon-flowChartMagneticDrum" width="22" height="22" viewBox="0 0 22 22" x="0" y="2336">
<path fill="none" stroke="#5c5c5c" stroke-linejoin="miter" stroke-linecap="butt" stroke-miterlimit="4" stroke-width="1" d="M15.5 18.5v-15h-9.5c-1.247 0-2.5 3.342-2.5 7.5s1.253 7.5 2.5 7.5h9.5z"></path>
<path fill="#fff" stroke="#5c5c5c" stroke-linejoin="miter" stroke-linecap="butt" stroke-miterlimit="4" stroke-width="1" d="M16 18.5c-1.381 0-2.5-3.358-2.5-7.5s1.119-7.5 2.5-7.5c1.381 0 2.5 3.358 2.5 7.5s-1.119 7.5-2.5 7.5z"></path>
</svg>
<svg id="icon-flowChartDisplay" width="22" height="22" viewBox="0 0 22 22" x="0" y="2368">
<path fill="none" stroke="#5c5c5c" stroke-linejoin="miter" stroke-linecap="butt" stroke-miterlimit="4" stroke-width="1" d="M8.277 3.5l-4.688 7.5 4.688 7.5h2.723c4.142 0 7.5-3.358 7.5-7.5s-3.358-7.5-7.5-7.5h-2.723z"></path>
</svg>
<svg id="icon-flowChartDocument" width="22" height="22" viewBox="0 0 22 22" x="0" y="2400">
<path fill="none" stroke="#5c5c5c" stroke-linejoin="miter" stroke-linecap="butt" stroke-miterlimit="4" stroke-width="1" d="M18.5 16.463v-12.963h-15v13.581l1.099 0.679c1.94 1.199 4.453 0.888 6.042-0.749 1.916-1.974 4.946-2.349 7.285-0.903l0.573 0.354z"></path>
</svg>
<svg id="icon-flowChartExtract" width="22" height="22" viewBox="0 0 22 22" x="0" y="2432">
<path fill="none" stroke="#5c5c5c" stroke-linejoin="miter" stroke-linecap="butt" stroke-miterlimit="4" stroke-width="1" d="M11 4.020l-8.145 14.48h16.29l-8.145-14.48z"></path>
</svg>
<svg id="icon-flowChartInternalStorage" width="22" height="22" viewBox="0 0 22 22" x="0" y="2464">
<path fill="none" stroke="#5c5c5c" stroke-linejoin="miter" stroke-linecap="butt" stroke-miterlimit="4" stroke-width="1" d="M3.5 3.5h15v15h-15v-15z"></path>
<path fill="#5c5c5c" d="M6 3h1v16h-1v-16z"></path>
<path fill="#5c5c5c" d="M3 6h16v1h-16v-1z"></path>
</svg>
<svg id="icon-flowChartMagneticDisk" width="22" height="22" viewBox="0 0 22 22" x="0" y="2496">
<path fill="none" stroke="#5c5c5c" stroke-linejoin="miter" stroke-linecap="butt" stroke-miterlimit="4" stroke-width="1" d="M18.5 6.5h-15v9.5c0 1.247 3.342 2.5 7.5 2.5s7.5-1.253 7.5-2.5v-9.5z"></path>
<path fill="#fff" stroke="#5c5c5c" stroke-linejoin="miter" stroke-linecap="butt" stroke-miterlimit="4" stroke-width="1" d="M18.5 6c0 1.381-3.358 2.5-7.5 2.5s-7.5-1.119-7.5-2.5c0-1.381 3.358-2.5 7.5-2.5s7.5 1.119 7.5 2.5z"></path>
</svg>
<svg id="icon-flowChartManualInput" width="22" height="22" viewBox="0 0 22 22" x="0" y="2528">
<path fill="none" stroke="#5c5c5c" stroke-linejoin="miter" stroke-linecap="butt" stroke-miterlimit="4" stroke-width="1" d="M3.5 9.346v9.154h15v-14.778l-15 5.625z"></path>
</svg>
<svg id="icon-flowChartManualOperation" width="22" height="22" viewBox="0 0 22 22" x="0" y="2560">
<path fill="none" stroke="#5c5c5c" stroke-linejoin="miter" stroke-linecap="butt" stroke-miterlimit="4" stroke-width="1" d="M3.64 3.5l3.75 15h7.219l3.75-15h-14.719z"></path>
</svg>
<svg id="icon-flowChartMerge" width="22" height="22" viewBox="0 0 22 22" x="0" y="2592">
<path fill="none" stroke="#5c5c5c" stroke-linejoin="miter" stroke-linecap="butt" stroke-miterlimit="4" stroke-width="1" d="M11 17.98l-8.145-14.48h16.29l-8.145 14.48z"></path>
</svg>
<svg id="icon-flowChartMultidocument" width="22" height="22" viewBox="0 0 22 22" x="0" y="2624">
<path fill="#fff" stroke="#5c5c5c" stroke-linejoin="miter" stroke-linecap="butt" stroke-miterlimit="4" stroke-width="1" d="M19.5 11.873v-9.373h-11v9.991l0.765 0.473c1.405 0.869 3.226 0.643 4.376-0.542 1.478-1.522 3.815-1.812 5.62-0.697l0.239 0.148z"></path>
<path fill="#fff" stroke="#5c5c5c" stroke-linejoin="miter" stroke-linecap="butt" stroke-miterlimit="4" stroke-width="1" d="M16.5 14.873v-9.373h-11v9.991l0.765 0.473c1.405 0.869 3.226 0.643 4.376-0.542 1.478-1.522 3.815-1.812 5.62-0.697l0.239 0.148z"></path>
<path fill="#fff" stroke="#5c5c5c" stroke-linejoin="miter" stroke-linecap="butt" stroke-miterlimit="4" stroke-width="1" d="M13.5 17.873v-9.373h-11v9.991l0.765 0.473c1.405 0.869 3.226 0.643 4.376-0.542 1.478-1.522 3.815-1.812 5.62-0.697l0.239 0.148z"></path>
</svg>
<svg id="icon-flowChartOffpageConnector" width="22" height="22" viewBox="0 0 22 22" x="0" y="2656">
<path fill="none" stroke="#5c5c5c" stroke-linejoin="miter" stroke-linecap="butt" stroke-miterlimit="4" stroke-width="1" d="M15.5 4.5h-9v8.898l4.5 3.938 4.5-3.938v-8.898z"></path>
</svg>
<svg id="icon-flowChartOr" width="22" height="22" viewBox="0 0 22 22" x="0" y="2688">
<path fill="none" stroke="#5c5c5c" stroke-linejoin="miter" stroke-linecap="butt" stroke-miterlimit="4" stroke-width="1" d="M19.5 10.5c0 4.418-3.582 8-8 8s-8-3.582-8-8c0-4.418 3.582-8 8-8s8 3.582 8 8z"></path>
<path fill="#5c5c5c" d="M11 3h1v15h-1v-15z"></path>
<path fill="#5c5c5c" d="M19 10v1h-15v-1h15z"></path>
</svg>
<svg id="icon-flowChartPredefinedProcess" width="22" height="22" viewBox="0 0 22 22" x="0" y="2720">
<path fill="none" stroke="#5c5c5c" stroke-linejoin="miter" stroke-linecap="butt" stroke-miterlimit="4" stroke-width="1" d="M3.5 3.5h15v15h-15v-15z"></path>
<path fill="#5c5c5c" d="M6 3h1v16h-1v-16z"></path>
<path fill="#5c5c5c" d="M15 3h1v16h-1v-16z"></path>
</svg>
<svg id="icon-flowChartPreparation" width="22" height="22" viewBox="0 0 22 22" x="0" y="2752">
<path fill="none" stroke="#5c5c5c" stroke-linejoin="miter" stroke-linecap="butt" stroke-miterlimit="4" stroke-width="1" d="M7.234 5.5l-4.583 5.5 4.583 5.5h7.532l4.583-5.5-4.583-5.5h-7.532z"></path>
</svg>
<svg id="icon-flowChartProcess" width="22" height="22" viewBox="0 0 22 22" x="0" y="2784">
<path fill="none" stroke="#5c5c5c" stroke-linejoin="miter" stroke-linecap="butt" stroke-miterlimit="4" stroke-width="1" d="M3.5 3.5h15v15h-15v-15z"></path>
</svg>
<svg id="icon-flowChartPunchedTape" width="22" height="22" viewBox="0 0 22 22" x="0" y="2816">
<path fill="none" stroke="#5c5c5c" stroke-linejoin="miter" stroke-linecap="butt" stroke-miterlimit="4" stroke-width="1" d="M18.5 5.193v10.808l-0.282-0.227c-0.043-0.035-0.087-0.069-0.132-0.103-2.363-1.786-5.716-1.303-7.487 1.077-0.027 0.037-0.055 0.073-0.083 0.108-1.5 1.889-4.233 2.195-6.106 0.684l-0.909-0.733v-10.808l0.282 0.227c0.043 0.035 0.087 0.069 0.132 0.103 2.363 1.786 5.716 1.303 7.487-1.077 0.027-0.037 0.055-0.073 0.083-0.108 1.5-1.889 4.233-2.195 6.106-0.684l0.909 0.733z"></path>
</svg>
<svg id="icon-flowChartMagneticTape" width="22" height="22" viewBox="0 0 22 22" x="0" y="2848">
<path fill="none" stroke="#5c5c5c" stroke-linejoin="miter" stroke-linecap="butt" stroke-miterlimit="4" stroke-width="1" d="M18.5 18.5v-2h-2.296l0.652-0.813c1.059-1.321 1.645-2.958 1.645-4.687 0-4.142-3.358-7.5-7.5-7.5s-7.5 3.358-7.5 7.5c0 4.142 3.358 7.5 7.5 7.5h7.5z"></path>
</svg>
<svg id="icon-flowChartSort" width="22" height="22" viewBox="0 0 22 22" x="0" y="2880">
<path fill="none" stroke="#5c5c5c" stroke-linejoin="miter" stroke-linecap="butt" stroke-miterlimit="4" stroke-width="1" d="M4.664 11l6.336 7.241 6.336-7.241-6.336-7.241-6.336 7.241z"></path>
<path fill="#5c5c5c" d="M5 10.5h12v1h-12v-1z"></path>
</svg>
<svg id="icon-flowChartOnlineStorage" width="22" height="22" viewBox="0 0 22 22" x="0" y="2912">
<path fill="none" stroke="#5c5c5c" stroke-linejoin="miter" stroke-linecap="butt" stroke-miterlimit="4" stroke-width="1" d="M17.099 5.5h-12.099c-0.248 0-0.629 0.483-0.94 1.415-0.354 1.063-0.56 2.522-0.56 4.085s0.206 3.021 0.56 4.085c0.311 0.932 0.691 1.415 0.94 1.415h12.099c-0.983-1.157-1.599-3.201-1.599-5.5s0.616-4.343 1.599-5.5z"></path>
</svg>
<svg id="icon-flowChartSummingJunction" width="22" height="22" viewBox="0 0 22 22" x="0" y="2944">
<path fill="#5c5c5c" d="M6.197 15.803c2.929 2.929 7.678 2.929 10.607 0s2.929-7.678 0-10.607c-2.929-2.929-7.678-2.929-10.607 0s-2.929 7.678 0 10.607zM5.49 16.51c-3.319-3.319-3.319-8.701 0-12.021s8.701-3.319 12.021 0c3.319 3.319 3.319 8.701 0 12.021s-8.701 3.319-12.021 0z"></path>
<path fill="#5c5c5c" d="M16.45 4.843l0.707 0.707-10.607 10.607-0.707-0.707 10.607-10.607z"></path>
<path fill="#5c5c5c" d="M17.157 15.45l-0.707 0.707-10.607-10.607 0.707-0.707 10.607 10.607z"></path>
</svg>
<svg id="icon-flowChartTerminator" width="22" height="22" viewBox="0 0 22 22" x="0" y="2976">
<path fill="none" stroke="#5c5c5c" stroke-linejoin="miter" stroke-linecap="butt" stroke-miterlimit="4" stroke-width="1" d="M18 16.5c0.248 0 0.629-0.483 0.94-1.415 0.354-1.063 0.56-2.522 0.56-4.085s-0.206-3.021-0.56-4.085c-0.311-0.932-0.691-1.415-0.94-1.415h-14c-0.248 0-0.629 0.483-0.94 1.415-0.354 1.063-0.56 2.522-0.56 4.085s0.206 3.021 0.56 4.085c0.311 0.932 0.691 1.415 0.94 1.415h14z"></path>
</svg>
<svg id="icon-rect" width="22" height="22" viewBox="0 0 22 22" x="0" y="3008">
<path fill="none" stroke="#5c5c5c" stroke-linejoin="miter" stroke-linecap="butt" stroke-miterlimit="4" stroke-width="1" d="M3.5 3.5h15v15h-15v-15z"></path>
</svg>
<svg id="icon-round1Rect" width="22" height="22" viewBox="0 0 22 22" x="0" y="3040">
<path fill="none" stroke="#5c5c5c" stroke-linejoin="miter" stroke-linecap="butt" stroke-miterlimit="4" stroke-width="1" d="M3.5 3.5v15h15v-13.293l-1.707-1.707h-13.293z"></path>
</svg>
<svg id="icon-round2DiagRect" width="22" height="22" viewBox="0 0 22 22" x="0" y="3072">
<path fill="none" stroke="#5c5c5c" stroke-linejoin="miter" stroke-linecap="butt" stroke-miterlimit="4" stroke-width="1" d="M5.207 3.5l-1.707 1.707v13.293h15v-13.293l-1.707-1.707h-11.586z"></path>
</svg>
<svg id="icon-round2SameRect" width="22" height="22" viewBox="0 0 22 22" x="0" y="3104">
<path fill="none" stroke="#5c5c5c" stroke-linejoin="miter" stroke-linecap="butt" stroke-miterlimit="4" stroke-width="1" d="M3.5 18.5h11.5c1.933 0 3.5-1.567 3.5-3.5v-11.5h-11.5c-1.933 0-3.5 1.567-3.5 3.5v11.5z"></path>
</svg>
<svg id="icon-roundRect" width="22" height="22" viewBox="0 0 22 22" x="0" y="3136">
<path fill="none" stroke="#5c5c5c" stroke-linejoin="miter" stroke-linecap="butt" stroke-miterlimit="4" stroke-width="1" d="M5.5 3.5h11c1.105 0 2 0.895 2 2v11c0 1.105-0.895 2-2 2h-11c-1.105 0-2-0.895-2-2v-11c0-1.105 0.895-2 2-2z"></path>
</svg>
<svg id="icon-snip1Rect" width="22" height="22" viewBox="0 0 22 22" x="0" y="3168">
<path fill="none" stroke="#5c5c5c" stroke-linejoin="miter" stroke-linecap="butt" stroke-miterlimit="4" stroke-width="1" d="M3.5 3.5v15h15v-8.805l-5.719-6.195h-9.281z"></path>
</svg>
<svg id="icon-snip2DiagRect" width="22" height="22" viewBox="0 0 22 22" x="0" y="3200">
<path fill="none" stroke="#5c5c5c" stroke-linejoin="miter" stroke-linecap="butt" stroke-miterlimit="4" stroke-width="1" d="M3.5 3.5v10.293l4.707 4.707h10.293v-10.293l-4.707-4.707h-10.293z"></path>
</svg>
<svg id="icon-snip2SameRect" width="22" height="22" viewBox="0 0 22 22" x="0" y="3232">
<path fill="none" stroke="#5c5c5c" stroke-linejoin="miter" stroke-linecap="butt" stroke-miterlimit="4" stroke-width="1" d="M7.24 3.5l-3.74 4.675v10.325h15v-10.325l-3.74-4.675h-7.519z"></path>
</svg>
<svg id="icon-snipRoundRect" width="22" height="22" viewBox="0 0 22 22" x="0" y="3264">
<path fill="none" stroke="#5c5c5c" stroke-linejoin="miter" stroke-linecap="butt" stroke-miterlimit="4" stroke-width="1" d="M5.268 3.5l-1.768 2.651v12.349h15v-9.319l-4.734-5.681h-8.498z"></path>
</svg>
<svg id="icon-bentArrow" width="22" height="22" viewBox="0 0 22 22" x="0" y="3296">
<path fill="none" stroke="#5c5c5c" stroke-linejoin="miter" stroke-linecap="butt" stroke-miterlimit="4" stroke-width="1" d="M12.5 6.5v-2.5l5.333 4-5.333 4v-2.5h-3.5c-0.828 0-1.5 0.672-1.5 1.5v7.5h-3v-8.5c0-1.933 1.567-3.5 3.5-3.5h4.5z"></path>
</svg>
<svg id="icon-bentUpArrow" width="22" height="22" viewBox="0 0 22 22" x="0" y="3328">
<path fill="none" stroke="#5c5c5c" stroke-linejoin="miter" stroke-linecap="butt" stroke-miterlimit="4" stroke-width="1" d="M17.932 7.5l-3.932-4.719-3.932 4.719h2.432v7h-9v3h12v-10h2.432z"></path>
</svg>
<svg id="icon-chevron" width="22" height="22" viewBox="0 0 22 22" x="0" y="3360">
<path fill="none" stroke="#5c5c5c" stroke-linejoin="miter" stroke-linecap="butt" stroke-miterlimit="4" stroke-width="1" d="M6.040 6.5l3.6 4.5-3.6 4.5h5.753l4.5-4.5-4.5-4.5h-5.753z"></path>
</svg>
<svg id="icon-circularArrow" width="22" height="22" viewBox="0 0 22 22" x="0" y="3392">
<path fill="none" stroke="#5c5c5c" stroke-linejoin="miter" stroke-linecap="butt" stroke-miterlimit="4" stroke-width="1" d="M3.5 16.5h3v-6.5c0-1.933 1.567-3.5 3.5-3.5s3.5 1.567 3.5 3.5v3.5h-2.432l3.932 4.719 3.932-4.719h-2.432v-3.5c0-3.59-2.91-6.5-6.5-6.5s-6.5 2.91-6.5 6.5v6.5z"></path>
</svg>
<svg id="icon-downArrow" width="22" height="22" viewBox="0 0 22 22" x="0" y="3424">
<path fill="none" stroke="#5c5c5c" stroke-linejoin="miter" stroke-linecap="butt" stroke-miterlimit="4" stroke-width="1" d="M8.5 2.5h5v10h3.398l-5.898 6.741-5.898-6.741h3.398v-10z"></path>
</svg>
<svg id="icon-downArrowCallout" width="22" height="22" viewBox="0 0 22 22" x="0" y="3456">
<path fill="none" stroke="#5c5c5c" stroke-linejoin="miter" stroke-linecap="butt" stroke-miterlimit="4" stroke-width="1" d="M8.207 15.5l2.793 2.793 2.793-2.793h-1.293v-3h6v-9h-15v9h6v3h-1.293z"></path>
</svg>
<svg id="icon-leftArrow" width="22" height="22" viewBox="0 0 22 22" x="0" y="3488">
<path fill="none" stroke="#5c5c5c" stroke-linejoin="miter" stroke-linecap="butt" stroke-miterlimit="4" stroke-width="1" d="M19.5 8.5v5h-10v3.398l-6.741-5.898 6.741-5.898v3.398h10z"></path>
</svg>
<svg id="icon-leftArrowCallout" width="22" height="22" viewBox="0 0 22 22" x="0" y="3520">
<path fill="none" stroke="#5c5c5c" stroke-linejoin="miter" stroke-linecap="butt" stroke-miterlimit="4" stroke-width="1" d="M6.5 13.793l-2.793-2.793 2.793-2.793v1.293h3v-6h9v15h-9v-6h-3v1.293z"></path>
</svg>
<svg id="icon-leftRightArrow" width="22" height="22" viewBox="0 0 22 22" x="0" y="3552">
<path fill="none" stroke="#5c5c5c" stroke-linejoin="miter" stroke-linecap="butt" stroke-miterlimit="4" stroke-width="1" d="M8.5 15.913l-5.732-4.913 5.732-4.913v2.413h5v-2.413l5.732 4.913-5.732 4.913v-2.413h-5v2.413z"></path>
</svg>
<svg id="icon-leftRightArrowCallout" width="22" height="22" viewBox="0 0 22 22" x="0" y="3584">
<path fill="none" stroke="#5c5c5c" stroke-linejoin="miter" stroke-linecap="butt" stroke-miterlimit="4" stroke-width="1" d="M5.5 13.793l-2.793-2.793 2.793-2.793v1.293h2v-5h7v5h2v-1.293l2.793 2.793-2.793 2.793v-1.293h-2v5h-7v-5h-2v1.293z"></path>
</svg>
<svg id="icon-leftUpArrow" width="22" height="22" viewBox="0 0 22 22" x="0" y="3616">
<path fill="none" stroke="#5c5c5c" stroke-linejoin="miter" stroke-linecap="butt" stroke-miterlimit="4" stroke-width="1" d="M16.5 16.5v-9h2.432l-3.932-4.719-3.932 4.719h2.432v6h-6v-2.432l-4.719 3.932 4.719 3.932v-2.432h9z"></path>
</svg>
<svg id="icon-notchedRightArrow" width="22" height="22" viewBox="0 0 22 22" x="0" y="3648">
<path fill="none" stroke="#5c5c5c" stroke-linejoin="miter" stroke-linecap="butt" stroke-miterlimit="4" stroke-width="1" d="M3.207 13.5h9.293v3.398l6.741-5.898-6.741-5.898v3.398h-9.293l2.5 2.5-2.5 2.5z"></path>
</svg>
<svg id="icon-homePlate" width="22" height="22" viewBox="0 0 22 22" x="0" y="3680">
<path fill="none" stroke="#5c5c5c" stroke-linejoin="miter" stroke-linecap="butt" stroke-miterlimit="4" stroke-width="1" d="M2.5 6.5v9h12.293l4.5-4.5-4.5-4.5h-12.293z"></path>
</svg>
<svg id="icon-rightArrow" width="22" height="22" viewBox="0 0 22 22" x="0" y="3712">
<path fill="none" stroke="#5c5c5c" stroke-linejoin="miter" stroke-linecap="butt" stroke-miterlimit="4" stroke-width="1" d="M2.5 8.5v5h10v3.398l6.741-5.898-6.741-5.898v3.398h-10z"></path>
</svg>
<svg id="icon-rightArrowCallout" width="22" height="22" viewBox="0 0 22 22" x="0" y="3744">
<path fill="none" stroke="#5c5c5c" stroke-linejoin="miter" stroke-linecap="butt" stroke-miterlimit="4" stroke-width="1" d="M15.5 13.793l2.793-2.793-2.793-2.793v1.293h-3v-6h-9v15h9v-6h3v1.293z"></path>
</svg>
<svg id="icon-stripedRightArrow" width="22" height="22" viewBox="0 0 22 22" x="0" y="3776">
<path fill="none" stroke="#5c5c5c" stroke-linejoin="miter" stroke-linecap="butt" stroke-miterlimit="4" stroke-width="1" d="M6.5 8.5v5h6v3.398l6.741-5.898-6.741-5.898v3.398h-6z"></path>
<path fill="#5c5c5c" d="M4 8h1v6h-1v-6z"></path>
<path fill="#5c5c5c" d="M2 8h1v6h-1v-6z"></path>
</svg>
<svg id="icon-upArrow" width="22" height="22" viewBox="0 0 22 22" x="0" y="3808">
<path fill="none" stroke="#5c5c5c" stroke-linejoin="miter" stroke-linecap="butt" stroke-miterlimit="4" stroke-width="1" d="M8.5 19.5h5v-10h3.398l-5.898-6.741-5.898 6.741h3.398v10z"></path>
</svg>
<svg id="icon-upArrowCallout" width="22" height="22" viewBox="0 0 22 22" x="0" y="3840">
<path fill="none" stroke="#5c5c5c" stroke-linejoin="miter" stroke-linecap="butt" stroke-miterlimit="4" stroke-width="1" d="M8.207 6.5l2.793-2.793 2.793 2.793h-1.293v3h6v9h-15v-9h6v-3h-1.293z"></path>
</svg>
<svg id="icon-upDownArrow" width="22" height="22" viewBox="0 0 22 22" x="0" y="3872">
<path fill="none" stroke="#5c5c5c" stroke-linejoin="miter" stroke-linecap="butt" stroke-miterlimit="4" stroke-width="1" d="M6.087 8.5l4.913-5.732 4.913 5.732h-2.413v5h2.413l-4.913 5.732-4.913-5.732h2.413v-5h-2.413z"></path>
</svg>
<svg id="icon-uturnArrow" width="22" height="22" viewBox="0 0 22 22" x="0" y="3904">
<path fill="none" stroke="#5c5c5c" stroke-linejoin="miter" stroke-linecap="butt" stroke-miterlimit="4" stroke-width="1" d="M3.5 18.5h3v-8.5c0-1.933 1.567-3.5 3.5-3.5s3.5 1.567 3.5 3.5v0.5h-2.432l3.932 4.719 3.932-4.719h-2.432v-0.5c0-3.59-2.91-6.5-6.5-6.5s-6.5 2.91-6.5 6.5v8.5z"></path>
</svg>
<svg id="icon-arc" width="22" height="22" viewBox="0 0 22 22" x="0" y="3936">
<path fill="none" stroke="#5c5c5c" stroke-linejoin="miter" stroke-linecap="butt" stroke-miterlimit="4" stroke-width="1" d="M17.5 18c0 7.456-6.044 13.5-13.5 13.5s-13.5-6.044-13.5-13.5c0-7.456 6.044-13.5 13.5-13.5s13.5 6.044 13.5 13.5z"></path>
</svg>
<svg id="icon-bevel" width="22" height="22" viewBox="0 0 22 22" x="0" y="3968">
<path fill="none" stroke="#5c5c5c" stroke-linejoin="miter" stroke-linecap="butt" stroke-miterlimit="4" stroke-width="1" d="M3.5 3.5h15v15h-15v-15z"></path>
<path fill="none" stroke="#5c5c5c" stroke-linejoin="miter" stroke-linecap="butt" stroke-miterlimit="4" stroke-width="1" d="M6.5 6.5h9v9h-9v-9z"></path>
<path fill="none" stroke="#5c5c5c" stroke-linejoin="miter" stroke-linecap="butt" stroke-miterlimit="4" stroke-width="1" d="M15 7l4-4"></path>
<path fill="none" stroke="#5c5c5c" stroke-linejoin="miter" stroke-linecap="butt" stroke-miterlimit="4" stroke-width="1" d="M15 15l4 4"></path>
<path fill="none" stroke="#5c5c5c" stroke-linejoin="miter" stroke-linecap="butt" stroke-miterlimit="4" stroke-width="1" d="M7 15l-4 4"></path>
<path fill="none" stroke="#5c5c5c" stroke-linejoin="miter" stroke-linecap="butt" stroke-miterlimit="4" stroke-width="1" d="M7 7l-4-4"></path>
</svg>
<svg id="icon-can" width="22" height="22" viewBox="0 0 22 22" x="0" y="4000">
<path fill="none" stroke="#5c5c5c" stroke-linejoin="miter" stroke-linecap="butt" stroke-miterlimit="4" stroke-width="1" d="M18.5 5.5h-15v11.5c0 1.247 3.342 2.5 7.5 2.5s7.5-1.253 7.5-2.5v-11.5z"></path>
<path fill="#fff" stroke="#5c5c5c" stroke-linejoin="miter" stroke-linecap="butt" stroke-miterlimit="4" stroke-width="1" d="M18.5 5c0 1.381-3.358 2.5-7.5 2.5s-7.5-1.119-7.5-2.5c0-1.381 3.358-2.5 7.5-2.5s7.5 1.119 7.5 2.5z"></path>
</svg>
<svg id="icon-chord" width="22" height="22" viewBox="0 0 22 22" x="0" y="4032">
<path fill="none" stroke="#5c5c5c" stroke-linejoin="miter" stroke-linecap="butt" stroke-miterlimit="4" stroke-width="1" d="M10.795 2.502c-4.6 0.109-8.295 3.872-8.295 8.498 0 4.694 3.806 8.5 8.5 8.5 4.626 0 8.389-3.695 8.498-8.295l-8.702-8.702z"></path>
</svg>
<svg id="icon-cloud" width="22" height="22" viewBox="0 0 22 22" x="0" y="4064">
<path fill="none" stroke="#5c5c5c" stroke-linejoin="miter" stroke-linecap="butt" stroke-miterlimit="4" stroke-width="1" d="M16.384 15.756l0.087-0.275 0.282-0.062c1.593-0.349 2.747-1.767 2.747-3.419 0-1.933-1.567-3.5-3.5-3.5-0.060 0-0.12 0.002-0.18 0.005l-0.398 0.020-0.108-0.384c-0.602-2.137-2.56-3.641-4.813-3.641-2.761 0-5 2.239-5 5 0 0.016 0 0.016 0 0.032l0.003 0.436-0.432 0.062c-1.467 0.21-2.571 1.472-2.571 2.97 0 1.657 1.343 3 3 3 0.302 0 0.598-0.044 0.88-0.131l0.368-0.113 0.203 0.326c0.545 0.875 1.5 1.417 2.549 1.417 0.756 0 1.467-0.28 2.015-0.777l0.357-0.324 0.337 0.346c0.468 0.48 1.107 0.756 1.791 0.756 1.098 0 2.057-0.714 2.384-1.744z"></path>
</svg>
<svg id="icon-corner" width="22" height="22" viewBox="0 0 22 22" x="0" y="4096">
<path fill="#5c5c5c" d="M19 15v4h-16v-16h5v11h11v1zM18 15h-11v-11h-3v14h14v-3z"></path>
</svg>
<svg id="icon-plus" width="22" height="22" viewBox="0 0 22 22" x="0" y="4128">
<path fill="none" stroke="#5c5c5c" stroke-linejoin="miter" stroke-linecap="butt" stroke-miterlimit="4" stroke-width="1" d="M12.5 3.5h-3v6h-6v3h6v6h3v-6h6v-3h-6v-6z"></path>
</svg>
<svg id="icon-decagon" width="22" height="22" viewBox="0 0 22 22" x="0" y="4160">
<path fill="none" stroke="#5c5c5c" stroke-linejoin="miter" stroke-linecap="butt" stroke-miterlimit="4" stroke-width="1" d="M8.207 2.5l-5.707 5.707v5.586l5.707 5.707h5.586l5.707-5.707v-5.586l-5.707-5.707h-5.586z"></path>
<path fill="#5c5c5c" d="M6.5 9.94v-0.818c0.38-0.017 0.645-0.042 0.797-0.076 0.242-0.053 0.439-0.16 0.59-0.32 0.104-0.11 0.183-0.256 0.236-0.439 0.031-0.11 0.046-0.191 0.046-0.245h0.999v6.114h-1.231v-4.217h-1.438zM11.51 11.158c0 0.703 0.058 1.24 0.173 1.613s0.351 0.559 0.708 0.559c0.357 0 0.591-0.186 0.702-0.559s0.167-0.91 0.167-1.613c0-0.737-0.056-1.282-0.167-1.636s-0.345-0.531-0.702-0.531c-0.357 0-0.593 0.177-0.708 0.531s-0.173 0.9-0.173 1.636zM12.392 8c0.779 0 1.325 0.274 1.638 0.822s0.47 1.327 0.47 2.336c0 1.009-0.157 1.787-0.47 2.332s-0.86 0.818-1.638 0.818c-0.779 0-1.325-0.273-1.638-0.818s-0.47-1.323-0.47-2.332c0-1.009 0.157-1.788 0.47-2.336s0.86-0.822 1.638-0.822z"></path>
</svg>
<svg id="icon-diagStripe" width="22" height="22" viewBox="0 0 22 22" x="0" y="4192">
<path fill="none" stroke="#5c5c5c" stroke-linejoin="miter" stroke-linecap="butt" stroke-miterlimit="4" stroke-width="1" d="M4.5 17.793l14.293-14.293h-6.828l-7.464 7.464v6.828z"></path>
</svg>
<svg id="icon-diamond" width="22" height="22" viewBox="0 0 22 22" x="0" y="4224">
<path fill="none" stroke="#5c5c5c" stroke-linejoin="miter" stroke-linecap="butt" stroke-miterlimit="4" stroke-width="1" d="M11 2.707l-8.293 8.293 8.293 8.293 8.293-8.293-8.293-8.293z"></path>
</svg>
<svg id="icon-dodecagon" width="22" height="22" viewBox="0 0 22 22" x="0" y="4256">
<path fill="none" stroke="#5c5c5c" stroke-linejoin="miter" stroke-linecap="butt" stroke-miterlimit="4" stroke-width="1" d="M8.207 2.5l-5.707 5.707v5.586l5.707 5.707h5.586l5.707-5.707v-5.586l-5.707-5.707h-5.586z"></path>
<path fill="#5c5c5c" d="M6.5 9.934v-0.821c0.381-0.017 0.648-0.042 0.8-0.076 0.243-0.054 0.44-0.161 0.593-0.322 0.104-0.11 0.183-0.257 0.237-0.44 0.031-0.11 0.047-0.192 0.047-0.245h1.003v6.137h-1.236v-4.232h-1.443zM10.297 14.167c0.011-0.44 0.106-0.842 0.284-1.206 0.172-0.409 0.578-0.842 1.219-1.299 0.556-0.398 0.916-0.683 1.079-0.855 0.251-0.268 0.377-0.561 0.377-0.88 0-0.26-0.072-0.475-0.216-0.648s-0.35-0.258-0.618-0.258c-0.367 0-0.617 0.137-0.749 0.411-0.076 0.158-0.121 0.409-0.135 0.753h-1.172c0.020-0.522 0.114-0.944 0.284-1.265 0.322-0.612 0.893-0.918 1.714-0.918 0.649 0 1.165 0.18 1.549 0.54s0.576 0.836 0.576 1.428c0 0.454-0.135 0.858-0.406 1.21-0.178 0.234-0.47 0.495-0.876 0.783l-0.482 0.343c-0.302 0.214-0.509 0.37-0.62 0.466s-0.205 0.207-0.281 0.334h2.679v1.062h-4.203z"></path>
</svg>
<svg id="icon-donut" width="22" height="22" viewBox="0 0 22 22" x="0" y="4288">
<path fill="none" stroke="#5c5c5c" stroke-linejoin="miter" stroke-linecap="butt" stroke-miterlimit="4" stroke-width="1" d="M19.5 11c0 4.694-3.806 8.5-8.5 8.5s-8.5-3.806-8.5-8.5c0-4.694 3.806-8.5 8.5-8.5s8.5 3.806 8.5 8.5z"></path>
<path fill="none" stroke="#5c5c5c" stroke-linejoin="miter" stroke-linecap="butt" stroke-miterlimit="4" stroke-width="1" d="M16.5 11c0 3.038-2.462 5.5-5.5 5.5s-5.5-2.462-5.5-5.5c0-3.038 2.462-5.5 5.5-5.5s5.5 2.462 5.5 5.5z"></path>
</svg>
<svg id="icon-bracePair" width="22" height="22" viewBox="0 0 22 22" x="0" y="4320">
<path fill="#5c5c5c" d="M14 4h0.948c0.55 0 0.99 0.195 1.306 0.585 0.289 0.36 0.44 0.869 0.44 1.499v3.043c0 0.45 0.082 0.779 0.261 1.004 0.192 0.225 0.536 0.345 1.045 0.375v0.989c-0.509 0.015-0.852 0.15-1.045 0.39-0.179 0.21-0.261 0.54-0.261 0.989v3.058c0 0.63-0.151 1.124-0.44 1.484-0.316 0.39-0.756 0.585-1.306 0.585h-0.948v-0.944h0.77c0.605 0 0.907-0.375 0.907-1.094v-3.133c0-0.884 0.371-1.499 1.127-1.829-0.756-0.315-1.127-0.929-1.127-1.829v-3.118c0-0.749-0.302-1.109-0.907-1.109h-0.77v-0.944z"></path>
<path fill="#5c5c5c" d="M8 4h-0.948c-0.55 0-0.99 0.195-1.306 0.585-0.289 0.36-0.44 0.869-0.44 1.499v3.043c0 0.45-0.082 0.779-0.261 1.004-0.192 0.225-0.536 0.345-1.045 0.375v0.989c0.509 0.015 0.852 0.15 1.045 0.39 0.179 0.21 0.261 0.54 0.261 0.989v3.058c0 0.63 0.151 1.124 0.44 1.484 0.316 0.39 0.756 0.585 1.306 0.585h0.948v-0.944h-0.77c-0.605 0-0.907-0.375-0.907-1.094v-3.133c0-0.884-0.371-1.499-1.127-1.829 0.756-0.315 1.127-0.929 1.127-1.829v-3.118c0-0.749 0.302-1.109 0.907-1.109h0.77v-0.944z"></path>
</svg>
<svg id="icon-bracketPair" width="22" height="22" viewBox="0 0 22 22" x="0" y="4352">
<path fill="#5c5c5c" d="M6 4h2v1.004h-2c-0.552 0-1 0.448-1 1v9.991c0 0.552 0.448 1 1 1h2v1.004h-2c-1.105 0-2-0.895-2-2v-10c0-1.105 0.895-2 2-2z"></path>
<path fill="#5c5c5c" d="M16 4h-2v1.004h2c0.552 0 1 0.448 1 1v9.991c0 0.552-0.448 1-1 1h-2v1.004h2c1.105 0 2-0.895 2-2v-10c0-1.105-0.895-2-2-2z"></path>
</svg>
<svg id="icon-foldedCorner" width="22" height="22" viewBox="0 0 22 22" x="0" y="4384">
<path fill="none" stroke="#5c5c5c" stroke-linejoin="miter" stroke-linecap="butt" stroke-miterlimit="4" stroke-width="1" d="M3.5 3.5v15h9.293l5.707-5.707v-9.293h-15z"></path>
<path fill="#5c5c5c" d="M12 13h1v6h-1v-6z"></path>
<path fill="#5c5c5c" d="M12 13v-1h7v1h-7z"></path>
</svg>
<svg id="icon-frame" width="22" height="22" viewBox="0 0 22 22" x="0" y="4416">
<path fill="none" stroke="#5c5c5c" stroke-linejoin="miter" stroke-linecap="butt" stroke-miterlimit="4" stroke-width="1" d="M3.5 3.5h15v15h-15v-15z"></path>
<path fill="none" stroke="#5c5c5c" stroke-linejoin="miter" stroke-linecap="butt" stroke-miterlimit="4" stroke-width="1" d="M5.5 5.5h11v11h-11v-11z"></path>
</svg>
<svg id="icon-heart" width="22" height="22" viewBox="0 0 22 22" x="0" y="4448">
<path fill="none" stroke="#5c5c5c" stroke-linejoin="miter" stroke-linecap="butt" stroke-miterlimit="4" stroke-width="1" d="M11 18.279l6.503-6.749c1.33-1.38 1.33-3.624 0-5.004-1.319-1.369-3.451-1.369-4.77 0l-1.733 1.798-1.733-1.798c-1.319-1.369-3.451-1.369-4.77 0-1.33 1.38-1.33 3.624 0 5.004l6.503 6.749z"></path>
</svg>
<svg id="icon-heptagon" width="22" height="22" viewBox="0 0 22 22" x="0" y="4480">
<path fill="none" stroke="#5c5c5c" stroke-linejoin="miter" stroke-linecap="butt" stroke-miterlimit="4" stroke-width="1" d="M8.207 2.5l-5.707 5.707v5.586l5.707 5.707h5.586l5.707-5.707v-5.586l-5.707-5.707h-5.586z"></path>
<path fill="#5c5c5c" d="M14 9.085c-0.208 0.204-0.496 0.568-0.866 1.092s-0.679 1.064-0.929 1.622c-0.198 0.438-0.376 0.973-0.535 1.605s-0.238 1.151-0.238 1.556h-1.44c0.042-1.265 0.457-2.579 1.245-3.945 0.509-0.846 0.935-1.436 1.279-1.77h-3.517l0.019-1.245h4.981v1.085z"></path>
</svg>
<svg id="icon-hexagon" width="22" height="22" viewBox="0 0 22 22" x="0" y="4512">
<path fill="none" stroke="#5c5c5c" stroke-linejoin="miter" stroke-linecap="butt" stroke-miterlimit="4" stroke-width="1" d="M19 11l-4 6.928h-8l-4-6.928 4-6.928h8z"></path>
</svg>
<svg id="icon-triangle" width="22" height="22" viewBox="0 0 22 22" x="0" y="4544">
<path fill="none" stroke="#5c5c5c" stroke-linejoin="miter" stroke-linecap="butt" stroke-miterlimit="4" stroke-width="1" d="M11 4.020l-8.145 14.48h16.29l-8.145-14.48z"></path>
</svg>
<svg id="icon-leftBrace" width="22" height="22" viewBox="0 0 22 22" x="0" y="4576">
<path fill="#5c5c5c" d="M13 4h-0.948c-0.55 0-0.99 0.195-1.306 0.585-0.289 0.36-0.44 0.869-0.44 1.499v3.043c0 0.45-0.082 0.779-0.261 1.004-0.192 0.225-0.536 0.345-1.045 0.375v0.989c0.509 0.015 0.852 0.15 1.045 0.39 0.179 0.21 0.261 0.54 0.261 0.989v3.058c0 0.63 0.151 1.124 0.44 1.484 0.316 0.39 0.756 0.585 1.306 0.585h0.948v-0.944h-0.77c-0.605 0-0.907-0.375-0.907-1.094v-3.133c0-0.884-0.371-1.499-1.127-1.829 0.756-0.315 1.127-0.929 1.127-1.829v-3.118c0-0.749 0.302-1.109 0.907-1.109h0.77v-0.944z"></path>
</svg>
<svg id="icon-leftBracket" width="22" height="22" viewBox="0 0 22 22" x="0" y="4608">
<path fill="#5c5c5c" d="M11 4h2v1.004h-2c-0.552 0-1 0.448-1 1v9.991c0 0.552 0.448 1 1 1h2v1.004h-2c-1.105 0-2-0.895-2-2v-10c0-1.105 0.895-2 2-2z"></path>
</svg>
<svg id="icon-lightningBolt" width="22" height="22" viewBox="0 0 22 22" x="0" y="4640">
<path fill="none" stroke="#5c5c5c" stroke-linejoin="miter" stroke-linecap="butt" stroke-miterlimit="4" stroke-width="0.9" d="M9.088 3.521l-6.021 2.23 5.974 3.372-1.775 1.753 5.296 2.615-1.736 2.571 7.645 2.059-3.52-3.477 0.858-1.695-4.548-2.695 1.858-2.753-4.030-3.981z"></path>
</svg>
<svg id="icon-moon" width="22" height="22" viewBox="0 0 22 22" x="0" y="4672">
<path fill="none" stroke="#5c5c5c" stroke-linejoin="miter" stroke-linecap="butt" stroke-miterlimit="4" stroke-width="1" d="M10.152 3.672c-3.271 0.827-5.652 3.792-5.652 7.271 0 4.142 3.358 7.5 7.5 7.5 2.402 0 4.605-1.139 6.001-3-0 0-0.001 0-0.001 0-4.694 0-8.5-3.806-8.5-8.5 0-1.139 0.225-2.246 0.652-3.271z"></path>
</svg>
<svg id="icon-noSmoking" width="22" height="22" viewBox="0 0 22 22" x="0" y="4704">
<path fill="none" stroke="#5c5c5c" stroke-linejoin="miter" stroke-linecap="butt" stroke-miterlimit="4" stroke-width="1" d="M6.158 8.279l7.563 7.563-0.711 0.279c-2.020 0.791-4.338 0.329-5.899-1.232s-2.023-3.879-1.232-5.899l0.279-0.711zM15.842 13.721l-7.563-7.563 0.711-0.279c2.020-0.791 4.338-0.329 5.899 1.232s2.023 3.879 1.232 5.899l-0.279 0.711zM17.010 17.010c3.319-3.319 3.319-8.701 0-12.021s-8.701-3.319-12.021 0c-3.319 3.319-3.319 8.701 0 12.021s8.701 3.319 12.021 0z"></path>
</svg>
<svg id="icon-octagon" width="22" height="22" viewBox="0 0 22 22" x="0" y="4736">
<path fill="none" stroke="#5c5c5c" stroke-linejoin="miter" stroke-linecap="butt" stroke-miterlimit="4" stroke-width="1" d="M8.207 2.5l-5.707 5.707v5.586l5.707 5.707h5.586l5.707-5.707v-5.586l-5.707-5.707h-5.586z"></path>
<path fill="#5c5c5c" d="M9.97 12.144c0 0.354 0.092 0.629 0.276 0.824s0.438 0.293 0.762 0.293c0.324 0 0.578-0.098 0.762-0.293s0.276-0.47 0.276-0.824c0-0.367-0.094-0.646-0.281-0.837s-0.439-0.286-0.757-0.286c-0.318 0-0.57 0.095-0.757 0.286s-0.281 0.469-0.281 0.837zM8.5 12.238c0-0.404 0.092-0.77 0.276-1.097s0.453-0.574 0.807-0.74c-0.348-0.232-0.573-0.482-0.678-0.752s-0.156-0.522-0.156-0.757c0-0.523 0.197-0.969 0.591-1.338s0.95-0.554 1.668-0.554c0.718 0 1.274 0.185 1.668 0.554s0.591 0.815 0.591 1.338c0 0.235-0.052 0.487-0.156 0.757s-0.33 0.504-0.678 0.703c0.354 0.199 0.621 0.462 0.799 0.789s0.268 0.693 0.268 1.097c0 0.606-0.224 1.121-0.673 1.547s-1.075 0.638-1.879 0.638c-0.804 0-1.413-0.213-1.827-0.638s-0.621-0.941-0.621-1.547zM10.099 9.051c0 0.262 0.080 0.475 0.241 0.641s0.383 0.248 0.668 0.248c0.288 0 0.511-0.083 0.668-0.248s0.236-0.379 0.236-0.641c0-0.285-0.079-0.507-0.236-0.668s-0.38-0.241-0.668-0.241c-0.285 0-0.507 0.080-0.668 0.241s-0.241 0.383-0.241 0.668z"></path>
</svg>
<svg id="icon-ellipse" width="22" height="22" viewBox="0 0 22 22" x="0" y="4768">
<path fill="none" stroke="#5c5c5c" stroke-linejoin="miter" stroke-linecap="butt" stroke-miterlimit="4" stroke-width="1" d="M19.5 11c0 4.694-3.806 8.5-8.5 8.5s-8.5-3.806-8.5-8.5c0-4.694 3.806-8.5 8.5-8.5s8.5 3.806 8.5 8.5z"></path>
</svg>
<svg id="icon-parallelogram" width="22" height="22" viewBox="0 0 22 22" x="0" y="4800">
<path fill="none" stroke="#5c5c5c" stroke-linejoin="miter" stroke-linecap="butt" stroke-miterlimit="4" stroke-width="1" d="M9.346 3.5l-5.625 15h9.932l5.625-15h-9.932z"></path>
</svg>
<svg id="icon-pie" width="22" height="22" viewBox="0 0 22 22" x="0" y="4832">
<path fill="none" stroke="#5c5c5c" stroke-linejoin="miter" stroke-linecap="butt" stroke-miterlimit="4" stroke-width="1" d="M10.5 2.514c-4.462 0.259-8 3.959-8 8.486 0 4.694 3.806 8.5 8.5 8.5 4.527 0 8.227-3.538 8.486-8h-8.986v-8.986z"></path>
</svg>
<svg id="icon-plaque" width="22" height="22" viewBox="0 0 22 22" x="0" y="4864">
<path fill="none" stroke="#5c5c5c" stroke-linejoin="miter" stroke-linecap="butt" stroke-miterlimit="4" stroke-width="1" d="M9.481 18.5h3.038c0.243-3.191 2.79-5.738 5.981-5.981v-3.038c-3.191-0.243-5.738-2.79-5.981-5.981h-3.038c-0.243 3.191-2.79 5.738-5.981 5.981v3.038c3.191 0.243 5.738 2.79 5.981 5.981z"></path>
</svg>
<svg id="icon-pentagon" width="22" height="22" viewBox="0 0 22 22" x="0" y="4896">
<path fill="none" stroke="#5c5c5c" stroke-linejoin="miter" stroke-linecap="butt" stroke-miterlimit="4" stroke-width="1" d="M11 3.653l-7.419 6.241 2.837 8.606h9.165l2.837-8.606-7.419-6.241z"></path>
</svg>
<svg id="icon-rightBrace" width="22" height="22" viewBox="0 0 22 22" x="0" y="4928">
<path fill="#5c5c5c" d="M9 4h0.948c0.55 0 0.99 0.195 1.306 0.585 0.289 0.36 0.44 0.869 0.44 1.499v3.043c0 0.45 0.082 0.779 0.261 1.004 0.192 0.225 0.536 0.345 1.045 0.375v0.989c-0.509 0.015-0.852 0.15-1.045 0.39-0.179 0.21-0.261 0.54-0.261 0.989v3.058c0 0.63-0.151 1.124-0.44 1.484-0.316 0.39-0.756 0.585-1.306 0.585h-0.948v-0.944h0.77c0.605 0 0.907-0.375 0.907-1.094v-3.133c0-0.884 0.371-1.499 1.127-1.829-0.756-0.315-1.127-0.929-1.127-1.829v-3.118c0-0.749-0.302-1.109-0.907-1.109h-0.77v-0.944z"></path>
</svg>
<svg id="icon-rightBracket" width="22" height="22" viewBox="0 0 22 22" x="0" y="4960">
<path fill="#5c5c5c" d="M11 4h-2v1.004h2c0.552 0 1 0.448 1 1v9.991c0 0.552-0.448 1-1 1h-2v1.004h2c1.105 0 2-0.895 2-2v-10c0-1.105-0.895-2-2-2z"></path>
</svg>
<svg id="icon-rtTriangle" width="22" height="22" viewBox="0 0 22 22" x="0" y="4992">
<path fill="none" stroke="#5c5c5c" stroke-linejoin="miter" stroke-linecap="butt" stroke-miterlimit="4" stroke-width="1" d="M3.5 4.207v14.293h14.293l-14.293-14.293z"></path>
</svg>
<svg id="icon-smileyFace" width="22" height="22" viewBox="0 0 22 22" x="0" y="5024">
<path fill="none" stroke="#5c5c5c" stroke-linejoin="miter" stroke-linecap="butt" stroke-miterlimit="4" stroke-width="1" d="M19.5 11c0 4.694-3.806 8.5-8.5 8.5s-8.5-3.806-8.5-8.5c0-4.694 3.806-8.5 8.5-8.5s8.5 3.806 8.5 8.5z"></path>
<path fill="#5c5c5c" d="M8 8c0.552 0 1 0.448 1 1v1c0 0.552-0.448 1-1 1s-1-0.448-1-1v-1c0-0.552 0.448-1 1-1z"></path>
<path fill="#5c5c5c" d="M14 8c0.552 0 1 0.448 1 1v1c0 0.552-0.448 1-1 1s-1-0.448-1-1v-1c0-0.552 0.448-1 1-1z"></path>
<path fill="#5c5c5c" d="M11 16c1.841 0 3.508-1 5-3-1.667 1-3.333 1.5-5 1.5s-3.333-0.5-5-1.5c1.492 2 3.159 3 5 3z"></path>
</svg>
<svg id="icon-sun" width="22" height="22" viewBox="0 0 22 22" x="0" y="5056">
<path fill="none" stroke="#5c5c5c" stroke-linejoin="miter" stroke-linecap="butt" stroke-miterlimit="4" stroke-width="1" d="M15.5 11c0 2.485-2.015 4.5-4.5 4.5s-4.5-2.015-4.5-4.5c0-2.485 2.015-4.5 4.5-4.5s4.5 2.015 4.5 4.5z"></path>
<path fill="#5c5c5c" d="M11 3l1 2h-2z"></path>
<path fill="#5c5c5c" d="M16.657 5.343l-0.707 2.121-1.414-1.414z"></path>
<path fill="#5c5c5c" d="M19 11l-2 1v-2z"></path>
<path fill="#5c5c5c" d="M16.657 16.657l-2.121-0.707 1.414-1.414z"></path>
<path fill="#5c5c5c" d="M11 19l-1-2h2z"></path>
<path fill="#5c5c5c" d="M5.343 16.657l0.707-2.121 1.414 1.414z"></path>
<path fill="#5c5c5c" d="M3 11l2-1v2z"></path>
<path fill="#5c5c5c" d="M5.343 5.343l2.121 0.707-1.414 1.414z"></path>
</svg>
<svg id="icon-teardrop" width="22" height="22" viewBox="0 0 22 22" x="0" y="5088">
<path fill="none" stroke="#5c5c5c" stroke-linejoin="miter" stroke-linecap="butt" stroke-miterlimit="4" stroke-width="1" d="M19.5 2.5h-8.5c-4.694 0-8.5 3.806-8.5 8.5s3.806 8.5 8.5 8.5c4.694 0 8.5-3.806 8.5-8.5v-8.5z"></path>
</svg>
<svg id="icon-trapezoid" width="22" height="22" viewBox="0 0 22 22" x="0" y="5120">
<path fill="none" stroke="#5c5c5c" stroke-linejoin="miter" stroke-linecap="butt" stroke-miterlimit="4" stroke-width="1" d="M6.39 3.5l-3.75 15h16.719l-3.75-15h-9.219z"></path>
</svg>
<svg id="icon-mathEqual" width="22" height="22" viewBox="0 0 22 22" x="0" y="5152">
<path fill="none" stroke="#5c5c5c" stroke-linejoin="miter" stroke-linecap="butt" stroke-miterlimit="4" stroke-width="1" d="M3.5 6.5h15v3h-15v-3z"></path>
<path fill="none" stroke="#5c5c5c" stroke-linejoin="miter" stroke-linecap="butt" stroke-miterlimit="4" stroke-width="1" d="M3.5 12.5h15v3h-15v-3z"></path>
</svg>
<svg id="icon-mathMinus" width="22" height="22" viewBox="0 0 22 22" x="0" y="5184">
<path fill="none" stroke="#5c5c5c" stroke-linejoin="miter" stroke-linecap="butt" stroke-miterlimit="4" stroke-width="1" d="M3.5 9.5h15v3h-15v-3z"></path>
</svg>
<svg id="icon-mathMultiply" width="22" height="22" viewBox="0 0 22 22" x="0" y="5216">
<path fill="none" stroke="#5c5c5c" stroke-linejoin="miter" stroke-linecap="butt" stroke-miterlimit="4" stroke-width="1" d="M6.8 4.707l-2.093 2.093 4.2 4.2-4.2 4.2 2.093 2.093 4.2-4.2 4.2 4.2 2.093-2.093-4.2-4.2 4.2-4.2-2.093-2.093-4.2 4.2-4.2-4.2z"></path>
</svg>
<svg id="icon-mathNotEqual" width="22" height="22" viewBox="0 0 22 22" x="0" y="5248">
<path fill="none" stroke="#5c5c5c" stroke-linejoin="miter" stroke-linecap="butt" stroke-miterlimit="4" stroke-width="1" d="M3.5 6.5h15v3h-15v-3z"></path>
<path fill="none" stroke="#5c5c5c" stroke-linejoin="miter" stroke-linecap="butt" stroke-miterlimit="4" stroke-width="1" d="M3.5 12.5h15v3h-15v-3z"></path>
<path fill="#fff" stroke="#5c5c5c" stroke-linejoin="miter" stroke-linecap="butt" stroke-miterlimit="4" stroke-width="1" d="M3 17.545l14.545-14.545 1.455 1.455-14.545 14.545z"></path>
</svg>
<svg id="icon-mathPlus" width="22" height="22" viewBox="0 0 22 22" x="0" y="5280">
<path fill="none" stroke="#5c5c5c" stroke-linejoin="miter" stroke-linecap="butt" stroke-miterlimit="4" stroke-width="1" d="M3.5 9.5v3h6v6h3v-6h6v-3h-6v-6h-3v6h-6z"></path>
</svg>
<svg id="icon-mathDivide" width="22" height="22" viewBox="0 0 22 22" x="0" y="5312">
<path fill="none" stroke="#5c5c5c" stroke-linejoin="miter" stroke-linecap="butt" stroke-miterlimit="4" stroke-width="1" d="M3.5 9.5h15v3h-15v-3z"></path>
<path fill="none" stroke="#5c5c5c" stroke-linejoin="miter" stroke-linecap="butt" stroke-miterlimit="4" stroke-width="1" d="M12.5 6c0 0.828-0.672 1.5-1.5 1.5s-1.5-0.672-1.5-1.5c0-0.828 0.672-1.5 1.5-1.5s1.5 0.672 1.5 1.5z"></path>
<path fill="none" stroke="#5c5c5c" stroke-linejoin="miter" stroke-linecap="butt" stroke-miterlimit="4" stroke-width="1" d="M12.5 16c0 0.828-0.672 1.5-1.5 1.5s-1.5-0.672-1.5-1.5c0-0.828 0.672-1.5 1.5-1.5s1.5 0.672 1.5 1.5z"></path>
</svg>
<svg id="icon-arbitraryShape" width="22" height="22" viewBox="0 0 22 22" x="0" y="5344">
    <g stroke="none" stroke-width="1" fill="none" fill-rule="evenodd">
        <g transform="translate(-440.000000, -342.000000)">
            <rect id="Rectangle-2-Copy-50" fill-opacity="0.04" fill="#5c5c5c" opacity="0" x="440" y="342" width="22" height="22" rx="1"></rect>
            <path d="M443.471094,360.460547 L458.471094,360.460547 L458.471094,350.654053 C458.137858,347.34139 456.859831,345.452881 454.637012,344.988525 C452.718238,344.587686 449.933724,344.587686 449.164193,346.843967 C448.394661,349.100248 453.109688,349.655597 451.362543,352.516925 C449.615399,355.378253 444.353403,352.489237 443.471094,351.734438 L443.471094,360.460547 Z" id="-2" stroke="#5C5C5C" transform="translate(450.971094, 352.623303) scale(-1, 1) translate(-450.971094, -352.623303) "></path>
        </g>
    </g>
</svg>
<svg id="icon-freeCurve" width="22" height="22" viewBox="0 0 22 22" x="0" y="5376">
    <g stroke="none" stroke-width="1" fill="none" fill-rule="evenodd">
        <g transform="translate(-470.000000, -342.000000)">
            <rect id="Rectangle-2-Copy-50" fill-opacity="0.04" fill="#5c5c5c" opacity="0" x="470" y="342" width="22" height="22" rx="1"></rect>
            <path d="M481.631268,347.290599 C480.313598,345.038608 472.169238,345.575665 474.377504,350.15949 C475.518443,352.527802 479.099498,350.343806 482.007701,350.855149 C483.958146,351.198092 486.065128,351.911847 486.726259,353.962746 C488.601799,359.780875 473.703129,363.640921 474.377504,357.853895 C474.827088,353.995877 479.7498,355.044579 489.14564,361" id="" stroke="#5C5C5C" stroke-linecap="round" stroke-linejoin="round"></path>
        </g>
    </g>
</svg>
</svg>
