<svg viewBox="0 0 1024 1024" version="1.1" xmlns="http://www.w3.org/2000/svg" width="22" height="22">
    <path
        d="M162.9 817c-3.89 0-7.81-1.13-11.26-3.49-9.12-6.23-11.47-18.67-5.24-27.8l269.73-394.98c3.33-4.88 8.65-8.03 14.52-8.62 5.88-0.59 11.71 1.45 15.94 5.57l197.92 192.68 251.98-368.65c6.23-9.12 18.68-11.46 27.8-5.23 9.12 6.23 11.46 18.68 5.23 27.8l-265.4 388.29a19.987 19.987 0 0 1-14.52 8.61c-5.88 0.59-11.71-1.45-15.94-5.57L435.74 432.95 179.43 808.28c-3.87 5.67-10.15 8.72-16.53 8.72z"
        fill="#5c5c5c"
    ></path>
</svg>
