<svg viewBox="0 0 1024 1024" version="1.1" xmlns="http://www.w3.org/2000/svg" width="22" height="22">
  <path
    d="M918 534c0-15.46-11.26-28-25.15-28-13.72 0-24.87 12.24-25.14 27.45-0.54 5.55-2.84 21.47-12.54 44.68-11.32 27.1-35.26 69.86-85.06 119.65-30.77 30.78-62.95 40.17-98.37 28.7-41-13.27-78.09-87.44-98.01-127.28-12.28-24.57-24.24-59.51-36.9-96.51-20.09-58.71-42.86-125.26-75.34-175.76-40.74-63.34-91.23-91.2-150.07-82.79-49.5 7.07-91.17 36.71-123.86 88.08-24.43 38.39-43.9 89.25-57.89 151.17-23.33 103.32-23.6 201.67-23.6 205.81 0 13.8 11.19 24.99 24.99 25h0.01c13.8 0 24.99-11.19 25-24.99 0-0.96 0.31-97.59 22.54-195.54 19.26-84.89 59.16-188.5 139.88-200.03 38.82-5.54 70.9 13.63 100.95 60.34 29.19 45.39 50.92 108.88 70.09 164.9 13.22 38.63 25.7 75.12 39.49 102.69 13.83 27.67 30.22 59.48 49.72 86.96 25.04 35.3 50.43 56.73 77.63 65.53 12.7 4.11 27.58 7.13 43.9 7.13 31.58 0 68.5-11.33 105.22-48.05 45.99-45.99 78.78-93 97.48-139.74 9.51-23.79 12.97-41.89 14.22-52.24 0.52-2.28 0.81-4.68 0.81-7.16z"
    fill="#5c5c5c"
  ></path>
</svg>
